<svg width="225" height="137" viewBox="0 0 225 137" fill="none" xmlns="http://www.w3.org/2000/svg"><path d="M28.0379 120L2.99284 120.224C1.65073 120.238 0.693745 121.952 1.09054 123.606C3.03953 131.577 8.80479 137.044 15.422 137C22.0392 136.94 27.8628 131.368 29.8935 123.367C30.3253 121.684 29.3917 119.985 28.0379 120Z" fill="#58CC02"/><mask id="mask0" mask-type="alpha" maskUnits="userSpaceOnUse" x="0" y="0" width="225" height="125"><rect width="225" height="125" fill="#C4C4C4"/></mask><g mask="url(#mask0)"><path d="M146.288 20.1873L73.4232 69.5483C69.5232 72.2003 69.3412 77.9873 73.0262 80.9973C90.8922 95.4323 116.091 96.6963 135.365 83.6873C154.616 70.6443 163.132 46.5363 156.853 24.2713C155.545 19.5773 150.188 17.5353 146.288 20.1873Z" fill="#58CC02"/><path d="M76.7661 66.5793L3.90049 115.941C0.000290155 118.593 -0.181213 124.379 3.50348 127.389C21.3695 141.824 46.5691 143.089 65.8431 130.079C85.0941 117.036 93.6091 92.9293 87.3301 70.6633C86.0221 65.9693 80.7001 63.9043 76.7661 66.5793Z" fill="#58CC02"/><path fill-rule="evenodd" clip-rule="evenodd" d="M141.733 65.0048L58.8614 122.423C55.0404 119.357 51.5605 115.767 48.6145 111.575L21.6265 73.5689C15.7922 65.3429 17.7357 53.9959 25.9456 48.1229C27.5261 47.0189 29.2658 46.1539 31.1307 45.5499C50.9514 39.4179 63.5164 34.5309 68.8034 30.8549C72.0334 28.6019 74.4095 24.8479 75.9445 19.5379C78.7405 9.83885 88.8385 4.28265 98.5384 7.07155C102.507 8.21685 105.975 10.6809 108.398 14.0899L134.965 51.6858C137.9 55.9358 140.174 60.3788 141.733 65.0048Z" fill="#58CC02"/><path fill-rule="evenodd" clip-rule="evenodd" d="M81.1071 32.0035C108.945 26.4335 136.147 43.9995 142.574 71.5845L145.282 83.1785C151.482 109.833 134.927 136.448 108.261 142.664C107.829 142.756 107.454 142.857 107.021 142.95C79.3321 148.667 52.1181 131.305 45.6791 103.776L42.7901 91.4675C36.6021 65.0525 53.0431 38.5625 79.5271 32.3685C80.0271 32.2315 80.5841 32.1065 81.1071 32.0035Z" fill="#58CC02"/><path d="M101.946 105.348L113.237 97.5175C113.851 97.1075 114.659 97.3575 114.852 98.0165C115.774 101.245 114.398 104.872 111.407 106.966C108.417 109.061 104.55 109.03 101.844 107.042C101.275 106.633 101.332 105.758 101.946 105.348ZM120.515 94.0895C119.946 93.6815 120.003 92.8055 120.617 92.3955L131.909 84.5655C132.523 84.1555 133.33 84.4055 133.523 85.0645C134.445 88.2925 133.069 91.9195 130.079 94.0145C127.088 96.1085 123.222 96.0775 120.515 94.0895ZM118.356 107.996L129.647 100.165C130.261 99.7545 131.068 100.005 131.262 100.664C132.183 103.892 130.807 107.52 127.817 109.614C124.826 111.708 120.96 111.677 118.253 109.689C117.742 109.292 117.764 108.439 118.356 107.996Z" fill="#89E219"/><path fill-rule="evenodd" clip-rule="evenodd" d="M74.1043 46.7775C80.8933 48.3075 86.6923 43.2545 87.4643 37.4675C88.7603 28.6225 95.1864 36.1085 106.787 59.8485L88.0134 72.8685C74.2524 54.4625 69.6003 45.7925 74.1043 46.7775Z" fill="#89E219"/><path fill-rule="evenodd" clip-rule="evenodd" d="M54.4313 51.285L55.8753 50.272C65.0753 43.887 77.7093 46.197 84.0663 55.354L91.2433 65.739C97.6233 74.931 95.3043 87.563 86.1393 93.925L84.6953 94.938C75.4963 101.323 62.8623 99.014 56.5043 89.856L49.3283 79.471C42.9483 70.279 45.2323 57.67 54.4313 51.285Z" fill="#89E219"/><path d="M53.0771 42.089L76.8791 47.39C78.1521 47.673 78.7211 49.117 78.0841 50.231C74.8671 55.532 68.4761 58.22 62.2671 56.747C56.0581 55.274 51.5771 50.036 51.0421 43.841C50.9401 42.579 51.8381 41.783 53.0771 42.089Z" fill="#89E219"/><path d="M48.7791 50.2764L72.2961 55.8174C73.5701 56.1004 74.1391 57.5434 73.5021 58.6584C70.2841 63.9584 63.8931 66.6464 57.6841 65.1734C51.4751 63.7004 46.9951 58.4634 46.4601 52.2674C46.3001 50.9944 47.4831 49.9594 48.7791 50.2764Z" fill="#89E219"/><path d="M90.7381 16.8098L87.9761 36.3888C87.8291 37.4228 88.9771 38.3318 90.2511 38.1718C96.2661 37.3598 100.872 33.3998 101.542 28.2718C102.212 23.1448 98.7781 18.1448 93.1151 15.8648C91.9201 15.3308 90.8861 15.7758 90.7381 16.8098Z" fill="#89E219"/><path d="M99.8811 17.2124L97.1191 36.7904C96.9711 37.8254 98.1201 38.7334 99.3941 38.5734C105.409 37.7614 110.014 33.8014 110.685 28.6744C111.355 23.5464 107.921 18.5474 102.257 16.2664C101.086 15.7674 100.029 16.1774 99.8811 17.2124Z" fill="#89E219"/><path fill-rule="evenodd" clip-rule="evenodd" d="M94.9912 23.1839C102.269 18.1309 112.287 19.9189 117.325 27.2479L129.301 44.5289C134.351 51.8009 132.555 61.8179 125.221 66.8599C117.943 71.9129 107.925 70.1249 102.886 62.7959L90.9112 45.5149C85.8612 38.2429 87.6802 28.2599 94.9912 23.1839Z" fill="#89E219"/><path fill-rule="evenodd" clip-rule="evenodd" d="M97.5623 30.5832C103.02 26.7932 110.491 28.1622 114.278 33.6162L122.694 45.7852C126.482 51.2392 125.106 58.7092 119.648 62.4992C114.19 66.2892 106.719 64.9192 102.932 59.4652L94.5162 47.2962C90.7282 41.8432 92.1043 34.3732 97.5623 30.5832Z" fill="white"/><path fill-rule="evenodd" clip-rule="evenodd" d="M101.497 38.8437C104.135 37.0347 107.706 37.6567 109.514 40.2927L115.497 48.9627C117.305 51.5987 116.68 55.1687 114.042 56.9777C111.404 58.7877 107.833 58.1657 106.025 55.5297L100.042 46.8597C98.2571 44.2577 98.9161 40.6647 101.497 38.8437Z" fill="#4B4B4B"/><path fill-rule="evenodd" clip-rule="evenodd" d="M110.39 42.8604C112.482 41.4154 112.994 38.5614 111.549 36.4714C110.105 34.3804 107.251 33.8714 105.158 35.3164C103.066 36.7614 102.555 39.6154 103.999 41.7064C105.443 43.7974 108.298 44.3064 110.39 42.8604Z" fill="white"/><path fill-rule="evenodd" clip-rule="evenodd" d="M59.6972 56.294C66.4962 51.56 75.8552 53.246 80.5752 60.097L85.8302 67.676C90.5612 74.47 88.8672 83.828 82.0112 88.551C75.1542 93.274 65.8522 91.599 61.1322 84.748L55.8782 77.169C51.1802 70.352 52.8742 60.995 59.6972 56.294Z" fill="white"/><path fill-rule="evenodd" clip-rule="evenodd" d="M65.2472 63.7236C68.4422 61.4936 72.8322 62.3086 75.0612 65.5016L79.5532 72.0116C81.7822 75.2046 80.9642 79.5936 77.7692 81.8236C74.5742 84.0546 70.1842 83.2396 67.9552 80.0466L63.4632 73.5366C61.2682 70.3206 62.0522 65.9546 65.2472 63.7236Z" fill="#4B4B4B"/><path d="M74.7542 67.0371C72.6442 68.4451 69.7932 67.8771 68.3862 65.7691C66.9792 63.6601 67.5492 60.8101 69.6592 59.4021C71.7692 57.9931 74.6202 58.5611 76.0272 60.6701C77.4342 62.7781 76.8642 65.6291 74.7542 67.0371Z" fill="white"/><path d="M120.035 65.7387L107.412 65.4417C111.54 56.6277 117.134 49.4957 124.138 44.1807L128.278 49.6457C130.177 52.1227 129.984 55.6017 127.824 57.8317C125.868 59.7767 124.094 61.9947 122.48 64.4517C121.934 65.2597 121.036 65.7607 120.035 65.7387ZM106.628 67.4427L106.548 67.3977C106.594 67.3177 106.605 67.2607 106.651 67.1817L106.628 67.4427Z" fill="#89E219"/><path d="M89.5721 83.4054L89.4241 78.2334C78.8251 78.6054 69.3761 81.2164 61.3701 86.0654L63.9861 90.4284C66.0791 93.8604 70.3321 95.3574 74.1071 93.9224C76.8251 92.8974 79.7021 92.1104 82.7611 91.5964C86.7861 90.9794 89.7311 87.4864 89.5721 83.4054Z" fill="#89E219"/><path fill-rule="evenodd" clip-rule="evenodd" d="M95.9273 63.1551C98.8613 61.0501 102.943 61.4791 105.354 64.2051L111.882 71.4761C114.589 74.4971 114.339 79.1471 111.292 81.8211C111.076 82.0151 110.825 82.2311 110.587 82.3901L110.246 82.6181C106.812 85.0081 102.047 84.1481 99.6583 80.7161C99.6133 80.6481 99.5453 80.5461 99.4993 80.4781L94.2113 72.1831C92.2323 69.2171 93.0273 65.2381 95.9273 63.1551Z" fill="#F49000"/><path fill-rule="evenodd" clip-rule="evenodd" d="M97.1212 64.4281L97.3602 64.2691C99.6682 62.6301 102.841 63.0251 104.695 65.1381L110.302 71.5451C112.11 73.5901 111.871 76.7051 109.825 78.5151C109.711 78.6401 109.54 78.7541 109.404 78.8451L109.063 79.0721C106.72 80.7341 103.468 80.2931 101.66 78.1001L96.2012 71.5451C94.4832 69.4891 94.7682 66.4421 96.8262 64.7241C96.9172 64.5651 97.0192 64.4961 97.1212 64.4281Z" fill="#DC6A01"/><path fill-rule="evenodd" clip-rule="evenodd" d="M99.0212 74.8837C99.2372 74.6907 99.4532 74.4967 99.6922 74.3377C102.956 72.0617 107.493 72.8767 109.756 76.1947C110.075 76.6717 110.359 77.1717 110.552 77.6827C110.348 77.9677 110.086 78.2407 109.836 78.4567C109.722 78.5817 109.552 78.6957 109.415 78.7867L109.074 79.0137C106.732 80.6757 103.479 80.2347 101.671 78.0427L99.0212 74.8837Z" fill="#FFCAFF"/><path d="M94.0292 73.6825C91.8232 69.0455 93.3802 63.3265 97.7352 60.3215C102.124 57.2945 107.958 57.8355 111.563 61.5385L111.813 61.7655L108.664 64.2125L94.2342 73.9895L94.0292 73.6825Z" fill="#FFC200"/><path d="M98.8042 65.6198C98.9412 65.5288 99.0552 65.4038 99.1682 65.2788C100.01 64.1758 101.079 63.4128 102.398 63.0258C103.216 62.7748 103.648 61.9448 103.421 61.1598C103.171 60.3418 102.34 59.9108 101.556 60.1388C99.5772 60.7198 97.9632 61.8468 96.7232 63.4618C96.2342 64.1328 96.3712 65.0768 97.0082 65.5878C97.5762 65.9958 98.2592 65.9848 98.8042 65.6198Z" fill="#FFDE00"/><path d="M221.683 30.774C225.092 28.128 225.714 23.223 223.071 19.818C220.429 16.414 215.523 15.799 212.113 18.445C208.704 21.092 208.082 25.997 210.725 29.401C213.368 32.806 218.274 33.421 221.683 30.774Z" fill="#FFA600"/><path fill-rule="evenodd" clip-rule="evenodd" d="M160.645 19.5004L160.941 18.4243C163.942 7.28875 175.461 0.71845 186.561 3.73115L202.216 7.95035L218.158 3.87425C219.838 3.41695 221.551 4.45835 221.944 6.12935C222.068 6.65375 222.059 7.22505 221.933 7.71835L208.117 58.0124C207.653 59.6714 205.937 60.6644 204.278 60.2024C203.847 60.0844 203.46 59.8774 203.116 59.5794L190.748 49.2534L175.336 45.1273C164.173 42.1073 157.609 30.6634 160.645 19.5004Z" fill="#FFC800"/><path d="M159.555 24.5798C159.273 24.7988 158.964 24.9829 158.654 25.1658C156.903 26.1868 154.835 26.4368 152.899 25.9078C150.962 25.3788 149.308 24.1228 148.289 22.3728C147.271 20.6238 147.024 18.5568 147.555 16.6208C148.087 14.6838 149.346 13.0288 151.098 12.0078C152.849 10.9878 154.916 10.7378 156.853 11.2668C160.914 12.3478 163.311 16.5278 162.224 20.5888C161.767 22.1858 160.86 23.5668 159.555 24.5798ZM152.739 15.8708C152.14 16.3358 151.712 16.9508 151.527 17.6588C151.29 18.5198 151.394 19.4548 151.863 20.2768C152.304 21.0628 153.054 21.6658 153.95 21.8738C154.811 22.1088 155.747 22.0038 156.57 21.5338C157.357 21.0918 157.961 20.3408 158.17 19.4448C158.686 17.6338 157.593 15.7158 155.747 15.2298C154.886 14.9948 153.95 15.1008 153.127 15.5698C153.013 15.7148 152.88 15.7608 152.739 15.8708Z" fill="#FFC800"/><path d="M189.004 14.8182C188.087 15.5302 186.814 15.7842 185.629 15.3492C180.79 13.6302 176.827 14.2782 173.127 17.3762C171.629 18.6512 169.367 18.4312 168.094 16.9362C166.82 15.4412 167.043 13.1792 168.541 11.9042C174.099 7.19481 180.857 6.07001 188.012 8.58821C189.871 9.23421 190.85 11.2972 190.201 13.1552C189.918 13.8832 189.533 14.4072 189.004 14.8182Z" fill="#FFEB66"/><path d="M216.653 13.7357C216.335 13.9817 215.928 14.1857 215.529 14.3267L210.555 15.9287C208.698 16.5237 206.664 15.5047 206.08 13.5877C205.488 11.7327 206.51 9.69772 208.429 9.11172L213.403 7.50872C215.259 6.91482 217.293 7.93272 217.877 9.85072C218.328 11.3067 217.817 12.8317 216.653 13.7357Z" fill="#FFEB66"/><path fill-rule="evenodd" clip-rule="evenodd" d="M151.594 28.0795L144.25 29.0735C142.684 29.2695 141.712 28.0595 142.104 26.3535L143.499 20.1685C143.892 18.4625 145.474 16.9005 147.04 16.7045L149.13 16.4235C151.973 16.0515 153.912 17.9415 153.679 20.9645L153.284 26.2815C153.241 27.0325 152.588 27.8645 151.823 28.0755C151.738 28.0695 151.679 28.0855 151.594 28.0795Z" fill="#58CC02"/></g></svg>