<svg width="74px" height="71px" viewBox="0 0 74 71" version="1.1" xmlns="http://www.w3.org/2000/svg" xmlns:xlink="http://www.w3.org/1999/xlink"><defs><path d="M32.447,0.296 C34.6510252,0.421395006 36.814344,0.943423548 38.833,1.837 L58.881,10.737 C67.9313281,14.7545659 73.765,23.7270166 73.765,33.629 C73.765,42.622 66.475,49.913 57.481,49.913 L55.704,49.913 C55.6270454,51.5808833 55.2496619,53.2211803 54.59,54.755 L54.5,54.964 C51.497,61.97 43.403,65.24 36.375,62.287 L18.495,54.772 C17.4142629,54.3188717 16.3951762,53.7308724 15.462,53.022 C6.284,48.383 0,38.935 0,28.034 C0,12.552 12.677,0 28.315,0 C29.719,0 31.099,0.101 32.447,0.296 Z" id="path-1"/><path d="M32.447,0.296 C34.6510252,0.421395006 36.814344,0.943423548 38.833,1.837 L58.881,10.737 C67.9313281,14.7545659 73.765,23.7270166 73.765,33.629 C73.765,42.622 66.475,49.913 57.481,49.913 L55.704,49.913 C55.6270454,51.5808833 55.2496619,53.2211803 54.59,54.755 L54.5,54.964 C51.497,61.97 43.403,65.24 36.375,62.287 L18.495,54.772 C17.4142629,54.3188717 16.3951762,53.7308724 15.462,53.022 C6.284,48.383 0,38.935 0,28.034 C0,12.552 12.677,0 28.315,0 C29.719,0 31.099,0.101 32.447,0.296 Z" id="path-3"/><path d="M32.447,0.296 C34.6510252,0.421395006 36.814344,0.943423548 38.833,1.837 L58.881,10.737 C67.9313281,14.7545659 73.765,23.7270166 73.765,33.629 C73.765,42.622 66.475,49.913 57.481,49.913 L55.704,49.913 C55.6270454,51.5808833 55.2496619,53.2211803 54.59,54.755 L54.5,54.964 C51.497,61.97 43.403,65.24 36.375,62.287 L18.495,54.772 C17.4142629,54.3188717 16.3951762,53.7308724 15.462,53.022 C6.284,48.383 0,38.935 0,28.034 C0,12.552 12.677,0 28.315,0 C29.719,0 31.099,0.101 32.447,0.296 Z" id="path-5"/></defs><g id="Page-1" stroke="none" stroke-width="1" fill="none" fill-rule="evenodd"><g id="brain-training" transform="translate(-10.000000, -16.000000)"><g id="Group" transform="translate(49.780882, 49.550511) rotate(-26.000000) translate(-49.780882, -49.550511) translate(12.780882, 13.050511)"><ellipse id="Oval" fill="#FFAADE" fill-rule="nonzero" cx="23.023" cy="49.476" rx="15.443" ry="15.29"/><path d="M35.09,53.196 L35.216,53.263 C36.1341229,53.7460113 36.8212746,54.5757506 37.1247298,55.5678013 C37.428185,56.559852 37.3228009,57.6320175 36.832,58.546 L30.57,70.206 C29.5595619,72.0882768 27.220237,72.8034673 25.33,71.808 L25.203,71.741 C24.2850502,71.2578143 23.5981154,70.4279994 23.2948529,69.4359651 C22.9915905,68.4439307 23.0971237,67.3718604 23.588,66.458 L29.849,54.798 C30.8594381,52.9157232 33.198763,52.2005327 35.089,53.196 L35.09,53.196 Z" id="Path" fill="#FFAADE" fill-rule="nonzero"/><g><g id="a-link" fill="#FFAADE" fill-rule="nonzero"><path d="M32.447,0.296 C34.6510252,0.421395006 36.814344,0.943423548 38.833,1.837 L58.881,10.737 C67.9313281,14.7545659 73.765,23.7270166 73.765,33.629 C73.765,42.622 66.475,49.913 57.481,49.913 L55.704,49.913 C55.6270454,51.5808833 55.2496619,53.2211803 54.59,54.755 L54.5,54.964 C51.497,61.97 43.403,65.24 36.375,62.287 L18.495,54.772 C17.4142629,54.3188717 16.3951762,53.7308724 15.462,53.022 C6.284,48.383 0,38.935 0,28.034 C0,12.552 12.677,0 28.315,0 C29.719,0 31.099,0.101 32.447,0.296 Z" id="a"/></g><g id="Clipped"><mask id="mask-2" fill="white"><use xlink:href="#path-1"/></mask><g id="a"/><path d="M58.857,49.742 C59.048,50.692 58.425,51.615 57.467,51.803 C56.5123855,51.9947947 55.582116,51.3795299 55.385,50.426 C54.71,47.068 53.069,44.575 50.422,42.846 C47.512,40.948 43.638,39.193 38.802,37.596 C38.3583044,37.4522062 37.9904222,37.1371475 37.7801095,36.7208412 C37.5697969,36.3045348 37.5344773,35.8214697 37.682,35.379 C37.9976745,34.4571763 38.9977522,33.962495 39.922,34.271 C45.03,35.958 49.178,37.836 52.371,39.921 C55.825,42.174 58.001,45.482 58.857,49.742 L58.857,49.742 Z" id="Path" fill="#E889C4" fill-rule="nonzero" mask="url(#mask-2)"/></g><g id="Clipped"><mask id="mask-4" fill="white"><use xlink:href="#path-3"/></mask><g id="a"/><path d="M11.9146732,38.7212284 C11.6826216,38.3171563 11.6220228,37.8369933 11.7464056,37.3879375 C11.8707884,36.9388817 12.1697958,36.5583251 12.5766732,36.3312284 C13.4254837,35.8516302 14.5021637,36.1440948 14.9916732,36.9872284 C16.7216732,39.9952284 20.5866732,41.0452284 23.6246732,39.3332284 C24.9135262,38.6086839 25.9056776,37.4529444 26.4266732,36.0692284 L26.5126732,35.8422284 C26.860044,34.9323621 27.875375,34.4719835 28.7886732,34.8102284 C29.2270222,34.9690038 29.5837802,35.2963122 29.7796409,35.7193938 C29.9755016,36.1424754 29.9942337,36.6262689 29.8316732,37.0632284 L29.7456732,37.2912284 C28.932776,39.4484215 27.3854306,41.2499989 25.3756732,42.3792284 C20.6386732,45.0492284 14.6116732,43.4112284 11.9146732,38.7212284 L11.9146732,38.7212284 Z" id="Path" fill="#E889C4" fill-rule="nonzero" mask="url(#mask-4)" transform="translate(20.812265, 39.179856) rotate(68.000000) translate(-20.812265, -39.179856)"/></g><g id="Clipped"><mask id="mask-6" fill="white"><use xlink:href="#path-5"/></mask><g id="a"/><path d="M15.497,35.306 C16.4362681,35.0486494 17.4071867,35.5975266 17.671,36.535 C17.7936772,36.9848658 17.7317444,37.4650881 17.4989442,37.8691091 C17.266144,38.2731301 16.8817297,38.5675359 16.431,38.687 L0.986,42.867 C0.0467318973,43.1243506 -0.92418667,42.5754734 -1.188,41.638 C-1.31098184,41.1879964 -1.24919975,40.7075156 -1.01637432,40.303263 C-0.78354889,39.8990105 -0.398953757,39.6044508 0.052,39.485 L15.496,35.306 L15.497,35.306 Z M56.124,32.468 C56.6760437,31.6644254 57.7715812,31.4540537 58.582,31.996 C58.9704366,32.2535744 59.2394565,32.6560642 59.3289093,33.1134762 C59.4183621,33.5708883 59.3207867,34.0450705 59.058,34.43 L54.384,41.283 C53.8319563,42.0865746 52.7364188,42.2969463 51.926,41.755 C51.5375634,41.4974256 51.2685435,41.0949358 51.1790907,40.6375238 C51.0896379,40.1801117 51.1872133,39.7059295 51.45,39.321 L56.124,32.468 L56.124,32.468 Z M33.1,6.43 C33.6487656,5.6242213 34.7433939,5.40939604 35.556,5.948 C35.945363,6.20380926 36.216036,6.60492185 36.3075466,7.06172349 C36.3990573,7.51852513 36.3037796,7.99294827 36.043,8.379 C33.563,12.049 34.559,17.015 38.266,19.469 C40.2028639,20.7495396 42.5942219,21.1424602 44.839,20.549 L47.583,19.824 C48.5236207,19.5719555 49.4913716,20.1261682 49.75,21.065 C49.8698046,21.5158016 49.804789,21.9957724 49.5693735,22.3984568 C49.333958,22.8011412 48.9476028,23.093252 48.496,23.21 L45.752,23.936 C42.522,24.789 39.077,24.224 36.298,22.384 C30.965,18.852 29.533,11.71 33.1,6.43 Z" id="Shape" fill="#E889C4" fill-rule="nonzero" mask="url(#mask-6)"/></g></g></g></g></g></svg>