<svg width="24" height="25" viewBox="0 0 24 25" fill="none" xmlns="http://www.w3.org/2000/svg"><path fill-rule="evenodd" clip-rule="evenodd" d="M23.9976 12.7244C23.9976 19.3511 18.6255 24.7232 11.9988 24.7232C5.37204 24.7232 0 19.3511 0 12.7244C0 6.09763 5.37204 0.725586 11.9988 0.725586C18.6255 0.725586 23.9976 6.09763 23.9976 12.7244ZM15.6158 5.2968C15.2253 4.90628 14.5921 4.90628 14.2016 5.2968C13.8111 5.68732 13.8111 6.32049 14.2016 6.71101L14.8233 7.33276H9.08724C7.24899 7.33276 5.75879 8.82296 5.75879 10.6612V11.8254C5.75879 12.3777 6.2065 12.8254 6.75879 12.8254C7.31107 12.8254 7.75879 12.3777 7.75879 11.8254V10.6612C7.75879 9.92753 8.35356 9.33276 9.08724 9.33276H14.8225L14.2016 9.9537C13.8111 10.3442 13.8111 10.9774 14.2016 11.3679C14.5921 11.7584 15.2253 11.7584 15.6158 11.3679L17.9366 9.04709C17.9539 9.03014 17.9706 9.01257 17.9866 8.99442C18.3342 8.60168 18.3201 8.00109 17.9442 7.62525L15.6158 5.2968ZM17.2368 11.989C17.7891 11.989 18.2368 12.4367 18.2368 12.989V14.1532C18.2368 15.9915 16.7466 17.4817 14.9084 17.4817H9.17243L9.79434 18.1036C10.1849 18.4941 10.1849 19.1273 9.79434 19.5178C9.40382 19.9083 8.77065 19.9083 8.38013 19.5178L6.05168 17.1894C5.85635 16.994 5.75872 16.738 5.75879 16.482V16.4817C5.75879 16.1953 5.87918 15.937 6.07212 15.7547L8.38013 13.4467C8.77065 13.0562 9.40382 13.0562 9.79434 13.4467C10.1849 13.8372 10.1849 14.4704 9.79434 14.8609L9.17357 15.4817H14.9084C15.642 15.4817 16.2368 14.8869 16.2368 14.1532V12.989C16.2368 12.4367 16.6845 11.989 17.2368 11.989Z" fill="#FF9600"/></svg>