<?xml version="1.0" encoding="UTF-8"?>
<svg width="212px" height="212px" viewBox="0 0 212 212" version="1.1" xmlns="http://www.w3.org/2000/svg" xmlns:xlink="http://www.w3.org/1999/xlink">
    <!-- Generator: Sketch 63.1 (92452) - https://sketch.com -->
    <title>waiter</title>
    <desc>Created with Sketch.</desc>
    <defs>
        <path d="M42,0 L84,0 C107.195959,-4.26102863e-15 126,18.8040405 126,42 L126,96 C126,96.5522847 125.552285,97 125,97 L1,97 C0.44771525,97 6.76353751e-17,96.5522847 0,96 L0,42 C-2.84068575e-15,18.8040405 18.8040405,4.26102863e-15 42,0 Z" id="path-1"></path>
    </defs>
    <g id="waiter" stroke="none" stroke-width="1" fill="none" fill-rule="evenodd">
        <g id="Group-2-Copy" transform="translate(2.000000, 1.000000)">
            <g id="Group">
                <g id="Rectangle-+-Rectangle-Copy-7-Mask" transform="translate(0.225742, 0.000000)">
                    <g id="Group-2">
                        <g id="Rectangle-+-Rectangle-Copy-7-Mask" transform="translate(14.000000, 106.000000)">
                            <mask id="mask-2" fill="white">
                                <use xlink:href="#path-1"></use>
                            </mask>
                            <use id="Mask" fill="#174E96" xlink:href="#path-1"></use>
                            <rect id="Rectangle" fill="#D2E4E8" mask="url(#mask-2)" x="-1" y="2" width="25" height="126"></rect>
                            <rect id="Rectangle-Copy-7" fill="#D2E4E8" mask="url(#mask-2)" x="102" y="2" width="25" height="126"></rect>
                        </g>
                        <path d="M58.7742576,79 L94.7742576,79 L94.7742576,134.780456 C94.7742576,136.212723 94.2619046,137.597745 93.3297972,138.685204 L79.0520274,155.342602 C77.973761,156.600579 76.079861,156.746264 74.8218835,155.667998 C74.7052471,155.568024 74.5964619,155.459238 74.4964878,155.342602 L60.218718,138.685204 C59.2866106,137.597745 58.7742576,136.212723 58.7742576,134.780456 L58.7742576,79 L58.7742576,79 Z" id="Rectangle-Copy-32" fill="#D2E4E8"></path>
                        <path d="M55.7742576,47 L97.7742576,47 L97.7742576,102.514719 C97.7742576,104.106018 97.1421166,105.632141 96.0168983,106.757359 L78.8955779,123.87868 C77.7240051,125.050253 75.8245101,125.050253 74.6529373,123.87868 L57.5316169,106.757359 C56.4063986,105.632141 55.7742576,104.106018 55.7742576,102.514719 L55.7742576,47 L55.7742576,47 Z" id="Rectangle-Copy-33" fill="#F2BAA4" transform="translate(76.774258, 86.500000) scale(1, -1) translate(-76.774258, -86.500000) "></path>
                        <path d="M58.2811189,115.219231 L80.439627,128.276923 C81.3912561,128.837705 81.7081008,130.063756 81.1473193,131.015385 C80.9752113,131.307447 80.7316892,131.550969 80.439627,131.723077 L58.2811189,144.780769 C54.950417,146.743504 50.6592385,145.634548 48.6965035,142.303846 C48.0619378,141.227007 47.7272727,139.999902 47.7272727,138.75 L47.7272727,121.25 C47.7272727,117.384007 50.8612795,114.25 54.7272727,114.25 C55.9771748,114.25 57.2042801,114.584665 58.2811189,115.219231 Z" id="Rectangle-Copy-22" fill="#EA2B2B"></path>
                        <path d="M81.1902098,115.219231 L103.348718,128.276923 C104.300347,128.837705 104.617192,130.063756 104.05641,131.015385 C103.884302,131.307447 103.64078,131.550969 103.348718,131.723077 L81.1902098,144.780769 C77.8595079,146.743504 73.5683294,145.634548 71.6055944,142.303846 C70.9710287,141.227007 70.6363636,139.999902 70.6363636,138.75 L70.6363636,121.25 C70.6363636,117.384007 73.7703704,114.25 77.6363636,114.25 C78.8862658,114.25 80.113371,114.584665 81.1902098,115.219231 Z" id="Rectangle-Copy-10" fill="#EA2B2B" transform="translate(88.454545, 130.000000) scale(-1, 1) translate(-88.454545, -130.000000) "></path>
                        <path d="M31.5045074,48.3293638 C37.8359989,46.620889 44.3536793,50.3685845 46.062154,56.7000759 C46.065775,56.713495 46.0693724,56.7269204 46.0729462,56.7403521 L48.9360686,67.5009784 C50.6299688,73.8672544 46.855781,80.40442 40.4954926,82.1206653 C34.1640011,83.82914 27.6463207,80.0814445 25.937846,73.7499531 C25.934225,73.736534 25.9306276,73.7231086 25.9270538,73.7096769 L23.0639314,62.9490506 C21.3700312,56.5827747 25.144219,50.045609 31.5045074,48.3293638 Z" id="Rectangle-Copy-58" fill="#F2BAA4"></path>
                        <path d="M76.7742576,0 C99.9702171,-4.26102863e-15 118.774258,18.8040405 118.774258,42 L118.774258,85 C118.774258,91.627417 113.401675,97 106.774258,97 L46.7742576,97 C40.1468406,97 34.7742576,91.627417 34.7742576,85 L34.7742576,42 C34.7742576,18.8040405 53.5782981,4.26102863e-15 76.7742576,0 Z" id="Rectangle-Copy-53" fill="#F2BAA4"></path>
                        <rect id="Rectangle" fill="#F2BAA4" x="144" y="120" width="28" height="33" rx="6"></rect>
                        <rect id="Rectangle" fill="#F2BAA4" x="140" y="109" width="52" height="17" rx="8.5"></rect>
                        <path d="M146,133 L170,133 C173.313708,133 176,135.686292 176,139 L176,188 C176,196.284271 169.284271,203 161,203 L155,203 C146.715729,203 140,196.284271 140,188 L140,139 C140,135.686292 142.686292,133 146,133 Z" id="Rectangle-Copy" fill="#D2E4E8"></path>
                        <rect id="Rectangle" fill="#D2E4E8" x="129" y="144" width="25" height="59"></rect>
                        <path d="M69.7742576,72 C69.7742576,79.7319865 76.0422711,86 83.7742576,86 L83.7742576,86" id="Path" stroke="#D28364" stroke-width="5.59999967" stroke-linecap="round" stroke-linejoin="round" transform="translate(76.774258, 79.000000) rotate(-45.000000) translate(-76.774258, -79.000000) "></path>
                        <rect id="Rectangle-Copy-6" fill="#D2E4E8" transform="translate(15.774258, 161.834665) rotate(-73.000000) translate(-15.774258, -161.834665) " x="-12.2257424" y="154.334665" width="56" height="15" rx="7.5"></rect>
                        <rect id="Rectangle" fill="#D2E4E8" x="1" y="169" width="84" height="35" rx="17.5"></rect>
                        <path d="M70.5,178 L88.5,178 C96.5081289,178 103,184.491871 103,192.5 L103,200 C103,203.865993 99.8659932,207 96,207 L70.5,207 C62.4918711,207 56,200.508129 56,192.5 C56,184.491871 62.4918711,178 70.5,178 Z" id="Rectangle" fill="#F2BAA4"></path>
                        <rect id="Rectangle" fill="#F2BAA4" x="85" y="178" width="22" height="12" rx="6"></rect>
                        <path d="M29.5,166 L76.5,166 C78.9852814,166 81,168.014719 81,170.5 L81,172 C81,173.656854 79.6568542,175 78,175 L29.5,175 C27.0147186,175 25,172.985281 25,170.5 C25,168.014719 27.0147186,166 29.5,166 Z" id="Rectangle" fill="#EA2B2B"></path>
                        <rect id="Rectangle" fill="#F2BAA4" transform="translate(79.761677, 177.963889) rotate(-300.000000) translate(-79.761677, -177.963889) " x="73.2616771" y="165.963889" width="13" height="24" rx="6.5"></rect>
                        <path d="M26,166 L74,166 C75.6568542,166 77,167.343146 77,169 L77,207 C77,208.656854 75.6568542,210 74,210 L18,210 C16.3431458,210 15,208.656854 15,207 L15,177 C15,170.924868 19.9248678,166 26,166 Z" id="Rectangle" fill="#EA2B2B"></path>
                        <path d="M122.13334,46.3646476 C115.198281,44.506404 108.069901,48.6219764 106.211657,55.5570357 L103.364648,66.1822198 C101.506404,73.1172792 105.621976,80.2456596 112.557036,82.1039032 C119.492095,83.9621467 126.620476,79.8465743 128.478719,72.911515 L131.325729,62.2863309 C133.183972,55.3512716 129.0684,48.2228911 122.13334,46.3646476 Z" id="Rectangle-Copy-54" fill="#F2BAA4"></path>
                        <rect id="Rectangle" fill="#777777" x="96" y="95" width="110" height="15" rx="7.5"></rect>
                        <rect id="Rectangle-Copy-3" fill="#D2E4E8" x="152" y="33" width="9" height="62" rx="4.5"></rect>
                        <rect id="Rectangle-Copy-2" fill="#D2E4E8" x="133" y="88" width="46" height="7" rx="3.5"></rect>
                        <path d="M126,20.7123288 C126,37.4397477 139.431458,51 156,51 C172.568542,51 186,37.4397477 186,20.7123288 C186,19.214351 184.797183,18 183.313433,18 L128.686567,18 C127.202817,18 126,19.214351 126,20.7123288 Z" id="Path" fill="#D2E4E8" fill-rule="nonzero"></path>
                        <path d="M131.027673,26.7843266 C133.317163,38.6438357 143.222767,46.8740331 155.50048,46.8740331 C168.55171,46.8740331 178.320884,38.9728964 179.986844,26.7017932 C180.10908,25.8014299 179.409103,25 178.50048,25 L132.50048,25 C131.558001,25 130.849026,25.8589347 131.027673,26.7843266 Z" id="Path-Copy" fill="#EA2B2B" fill-rule="nonzero"></path>
                        <path d="M141,30 C144.241437,35.4647059 150.246168,38.9328293 157.282773,38.9328293" id="Path" stroke="#FF6464" stroke-width="7.5" stroke-linecap="round" stroke-linejoin="round" fill-rule="nonzero"></path>
                        <path d="M86.5,20 C93.4035594,20 99,25.5964406 99,32.5 L99,42.5 C99,49.4035594 93.4035594,55 86.5,55 C82.6976042,55 79.2917453,53.3022239 76.9991298,50.6233784 C74.7082547,53.3022239 71.3023958,55 67.5,55 C60.5964406,55 55,49.4035594 55,42.5 L55,32.5 C55,25.5964406 60.5964406,20 67.5,20 C71.3023958,20 74.7082547,21.6977761 77.0008702,24.3766216 C79.2917453,21.6977761 82.6976042,20 86.5,20 Z" id="Combined-Shape" fill="#FFFFFF"></path>
                        <rect id="Rectangle" fill="#4B4B4B" x="64" y="28" width="13" height="21" rx="6.5"></rect>
                        <rect id="Rectangle-Copy-5" fill="#4B4B4B" x="83" y="28" width="13" height="21" rx="6.5"></rect>
                        <path d="M86.5,20 C93.4035594,20 99,25.5964406 99,32.5 L99,38 L55,38 L55,32.5 C55,25.5964406 60.5964406,20 67.5,20 C71.3023958,20 74.7082547,21.6977761 77.0008702,24.3766216 C79.2917453,21.6977761 82.6976042,20 86.5,20 Z" id="Combined-Shape" fill="#D28364"></path>
                        <rect id="Rectangle" fill="#F2BAA4" x="70" y="43" width="14" height="21" rx="6.5"></rect>
                        <rect id="Rectangle" fill="#A56644" transform="translate(85.130250, 66.384947) rotate(-345.000000) translate(-85.130250, -66.384947) " x="72.1302498" y="59.3849474" width="26" height="14" rx="7"></rect>
                        <rect id="Rectangle-Copy-8" fill="#A56644" transform="translate(70.851732, 66.255538) scale(-1, 1) rotate(-345.000000) translate(-70.851732, -66.255538) " x="57.351732" y="59.2555379" width="27" height="14" rx="7"></rect>
                        <path d="M39,37 C41.209139,37 43,38.790861 43,41 L43,60 C43,62.209139 41.209139,64 39,64 L36,64 C35.4477153,64 35,63.5522847 35,63 L35,41 C35,38.790861 36.790861,37 39,37 Z" id="Rectangle" fill="#A56644"></path>
                        <path d="M115,39 C117.209139,39 119,40.790861 119,43 L119,62 C119,64.209139 117.209139,66 115,66 L112,66 C111.447715,66 111,65.5522847 111,65 L111,43 C111,40.790861 112.790861,39 115,39 Z" id="Rectangle-Copy-11" fill="#A56644" transform="translate(115.000000, 52.500000) scale(-1, 1) translate(-115.000000, -52.500000) "></path>
                        <rect id="Rectangle-Copy-12" fill="#A56644" transform="translate(65.048689, 17.465926) scale(-1, 1) rotate(-345.000000) translate(-65.048689, -17.465926) " x="54.0486888" y="11.9659258" width="22" height="11" rx="5.5"></rect>
                        <rect id="Rectangle-Copy-13" fill="#A56644" transform="translate(89.892092, 17.500000) rotate(-345.000000) translate(-89.892092, -17.500000) " x="78.8920923" y="12" width="22" height="11" rx="5.5"></rect>
                    </g>
                </g>
            </g>
        </g>
    </g>
</svg>
