<?xml version="1.0" encoding="UTF-8"?>
<svg width="212px" height="212px" viewBox="0 0 212 212" version="1.1" xmlns="http://www.w3.org/2000/svg" xmlns:xlink="http://www.w3.org/1999/xlink">
    <!-- Generator: Sketch 63.1 (92452) - https://sketch.com -->
    <title>height</title>
    <desc>Created with Sketch.</desc>
    <defs>
        <rect id="path-1" x="0" y="0" width="18.0763359" height="152.236686" rx="9.03816794"></rect>
    </defs>
    <g id="height" stroke="none" stroke-width="1" fill="none" fill-rule="evenodd">
        <g id="Group" transform="translate(25.000000, 9.000000)">
            <rect id="Rectangle" fill="#FFD300" fill-rule="nonzero" x="15.8167939" y="163.597633" width="11.2977099" height="28.4023669" rx="5.64885496"></rect>
            <rect id="Rectangle-Copy-2" fill="#FFB500" fill-rule="nonzero" x="29.3740458" y="163.597633" width="11.2977099" height="28.4023669" rx="5.64885496"></rect>
            <rect id="Rectangle-Copy-3" fill="#FFB500" fill-rule="nonzero" x="74.5648855" y="152.236686" width="11.2977099" height="39.7633136" rx="5.64885496"></rect>
            <rect id="Rectangle-Copy" fill="#FFD300" fill-rule="nonzero" x="61.0076336" y="163.597633" width="11.2977099" height="28.4023669" rx="5.64885496"></rect>
            <rect id="Rectangle" fill="#CD7900" fill-rule="nonzero" x="65.5267176" y="18.1775148" width="7.90839695" height="124.970414" rx="3.95419847"></rect>
            <rect id="Rectangle" fill="#FFD300" fill-rule="nonzero" x="7.90839695" y="135.195266" width="80.2137405" height="38.6272189" rx="19.2473999"></rect>
            <g id="Rectangle-Copy-9-+-Rectangle-Copy-11-+-Rectangle-Copy-12-+-Rectangle-Copy-13-Mask" transform="translate(70.045802, 11.360947)">
                <mask id="mask-2" fill="white">
                    <use xlink:href="#path-1"></use>
                </mask>
                <use id="Mask" fill="#FFD300" fill-rule="nonzero" xlink:href="#path-1"></use>
                <rect id="Rectangle-Copy-9" fill="#FFB500" fill-rule="nonzero" mask="url(#mask-2)" x="4.51908397" y="104.52071" width="10.1679389" height="17.0414201" rx="5.08396947"></rect>
                <rect id="Rectangle-Copy-11" fill="#FFB500" fill-rule="nonzero" mask="url(#mask-2)" x="-3.38931298" y="72.7100592" width="13.5572519" height="20.4497041" rx="6.77862595"></rect>
                <rect id="Rectangle-Copy-12" fill="#FFB500" fill-rule="nonzero" mask="url(#mask-2)" x="9.03816794" y="49.9881657" width="11.2977099" height="15.9053254" rx="5.64885496"></rect>
                <rect id="Rectangle-Copy-13" fill="#FFB500" fill-rule="nonzero" mask="url(#mask-2)" x="-1.12977099" y="29.5384615" width="9.03816794" height="13.6331361" rx="4.51908397"></rect>
            </g>
            <rect id="Rectangle" fill="#FFB500" fill-rule="nonzero" x="73.4351145" y="2.27218935" width="5.64885496" height="13.6331361" rx="2.82442748"></rect>
            <rect id="Rectangle" fill="#FFB500" fill-rule="nonzero" x="72.3053435" y="0" width="9.03816794" height="5.68047337" rx="2.83049998"></rect>
            <rect id="Rectangle-Copy-5" fill="#FFB500" fill-rule="nonzero" x="82.4732824" y="0" width="9.03816794" height="5.68047337" rx="2.83049998"></rect>
            <rect id="Rectangle-Copy-4" fill="#FFB500" fill-rule="nonzero" x="83.6030534" y="2.27218935" width="5.64885496" height="13.6331361" rx="2.82442748"></rect>
            <path d="M72.3102015,10.2248521 L102.221199,10.2248521 C108.161519,10.2248521 112.977099,15.0404325 112.977099,20.980752 L112.977099,21.054751 C112.977099,26.9950705 108.161519,31.8106509 102.221199,31.8106509 L80.8017015,31.8106509 C74.861382,31.8106509 70.0458015,26.9950705 70.0458015,21.054751 L70.0458015,12.4892521 C70.0458015,11.2386585 71.0596079,10.2248521 72.3102015,10.2248521 Z" id="Rectangle" fill="#FFD300" fill-rule="nonzero"></path>
            <rect id="Rectangle" fill="#FFB500" fill-rule="nonzero" x="82.4732824" y="12.4970414" width="3.38931298" height="6.81656805" rx="1.69465649"></rect>
            <rect id="Rectangle-Copy-6" fill="#FFB500" fill-rule="nonzero" x="88.1221374" y="12.4970414" width="3.38931298" height="6.81656805" rx="1.69465649"></rect>
            <rect id="Rectangle" fill="#FFB500" fill-rule="nonzero" x="18.0763359" y="140.87574" width="14.6870229" height="9.0887574" rx="4.5443787"></rect>
            <rect id="Rectangle-Copy-7" fill="#FFB500" fill-rule="nonzero" x="53.0992366" y="138.60355" width="19.2061069" height="12.4970414" rx="6.22709996"></rect>
            <rect id="Rectangle-Copy-8" fill="#FFB500" fill-rule="nonzero" x="35.0229008" y="147.692308" width="16.9465649" height="12.4970414" rx="6.22709996"></rect>
            <line x1="136.137405" y1="9.0887574" x2="136.137405" y2="180.639053" id="Path-62" stroke="#CCEFFF" stroke-width="9.05759995" fill-rule="nonzero"></line>
            <polyline id="Path-63" stroke="#CCEFFF" stroke-width="9.05759995" stroke-linecap="round" stroke-linejoin="round" fill-rule="nonzero" points="124.274809 15.9053254 135.914193 4.5443787 147.553578 15.9053254"></polyline>
            <polyline id="Path-63-Copy" stroke="#CCEFFF" stroke-width="9.05759995" stroke-linecap="round" stroke-linejoin="round" fill-rule="nonzero" transform="translate(135.914193, 180.639053) scale(1, -1) translate(-135.914193, -180.639053) " points="124.274809 186.319527 135.914193 174.95858 147.553578 186.319527"></polyline>
            <path d="M58.9917732,7.93970355 L74.2530312,7.96934983 C75.0498324,7.97092951 75.6953886,8.61646676 75.6969598,9.41326793 C75.6969598,9.41326793 75.6969598,9.41326793 75.6969598,9.41326793 C75.7077753,15.0136012 71.3157796,19.3156503 66.6734933,19.3066464 C62.0165439,19.2975857 57.6171869,14.9504879 57.6063003,9.32512657 C57.6063003,9.32512657 57.6063003,9.32512657 57.6063003,9.32512657 C57.6048262,8.5614345 58.222726,7.94114479 58.9864181,7.93967074 C58.9882031,7.93966729 58.9899882,7.9396673 58.9917732,7.93970355 Z" id="Mask-Copy-5" fill="#FFD300" fill-rule="nonzero" transform="translate(66.651630, 13.623175) rotate(22.000000) translate(-66.651630, -13.623175) "></path>
            <path d="M14.7116509,144.438192 C11.6400495,143.827509 9.32319707,142.640025 7.76109348,140.87574 C6.1989899,139.111454 5.49491039,136.460567 5.64885496,132.923077" id="Path-64" stroke="#FFD300" stroke-width="4.52879997" stroke-linecap="round" fill-rule="nonzero"></path>
            <rect id="Rectangle" fill="#CD7900" fill-rule="nonzero" x="0" y="121.56213" width="11.2977099" height="14.7692308" rx="5.64885496"></rect>
        </g>
    </g>
</svg>
