<?xml version="1.0" encoding="UTF-8"?><svg width="212px" height="212px" viewBox="0 0 212 212" version="1.1" xmlns="http://www.w3.org/2000/svg" xmlns:xlink="http://www.w3.org/1999/xlink"><title>money</title><desc>Created with Sketch.</desc><defs><path d="M2.7,0 L41.8945946,0 C43.3857634,-2.73923269e-16 44.5945946,1.20883118 44.5945946,2.7 L44.5945946,101.3 C44.5945946,102.791169 43.3857634,104 41.8945946,104 L2.7,104 C1.20883118,104 7.24098091e-15,102.791169 0,101.3 L0,2.7 C-1.82615513e-16,1.20883118 1.20883118,2.93845853e-15 2.7,0 Z" id="path-1"/></defs><g id="money" stroke="none" stroke-width="1" fill="none" fill-rule="evenodd"><g id="Group" transform="translate(6.000000, 48.000000)"><rect id="Rectangle" fill="#78C800" x="8" y="23" width="13" height="61"/><rect id="Rectangle" fill="#78C800" x="169" y="23" width="13" height="61"/><rect id="Rectangle-115-Copy" fill="#58A700" x="10.8108108" y="31.0649351" width="178.378378" height="68.8831169" rx="6.75"/><path d="M197.762229,82.7021006 L170.061489,86.3936138 C167.105286,86.7875695 164.389446,84.7104575 163.99549,81.7542544 C163.98298,81.660377 163.972941,81.5661867 163.965385,81.4717812 L159.379154,24.1736773 C159.168513,21.5420285 160.891569,19.143898 163.452887,18.5039012 L169.824923,16.9117198 L169.824923,16.9117198 L169.824923,75.0559579 C169.824923,76.5214921 170.994024,77.7194404 172.459123,77.755156 L197.527625,78.3662652 C198.730024,78.3955768 199.681,79.3940757 199.651688,80.5964749 C199.625577,81.6675764 198.82426,82.56057 197.762229,82.7021006 Z" id="Path-46-Copy" fill="#78C800" transform="translate(179.507056, 51.676639) scale(-1, -1) translate(-179.507056, -51.676639)"/><g id="Oval" transform="translate(10.810811, 4.051948)" fill="#ADE756" stroke="#78C800" stroke-width="8.1"><rect id="Mask" x="4.05" y="4.05" width="170.278378" height="60.7831169" rx="6.75"/></g><rect id="Rectangle-120" fill="#78C800" x="66.9189189" y="20.2597403" width="64.8648649" height="51.3246753" rx="22.95"/><path d="M48.0895874,86.147578 L10.8949156,89.9345871 C7.92791692,90.2366747 5.27779887,88.0763375 4.97571122,85.1093389 C4.97177386,85.0706675 4.96825418,85.0319548 4.96515277,84.9932074 L0.36504234,27.5216978 C0.154401011,24.890049 1.87745715,22.4919185 4.43877504,21.8519217 L10.8108108,20.2597403 L10.8108108,20.2597403 L10.8108108,78.387669 C10.8108108,79.8596796 11.9898969,81.0604271 13.4616635,81.0872217 L47.9049171,81.7142857 C49.1321919,81.7366291 50.1089818,82.7496448 50.0866384,83.9769196 C50.0661631,85.1015841 49.2086528,86.0336393 48.0895874,86.147578 Z" id="Path-46" fill="#78C800"/><g id="Rectangle-115-+-Rectangle-115-Copy-2-Mask" transform="translate(77.378378, 0.000000)"><mask id="mask-2" fill="white"><use xlink:href="#path-1"/></mask><use id="Mask" fill="#F5F5F5" xlink:href="#path-1"/><rect id="Rectangle-115" fill="#FFC800" mask="url(#mask-2)" x="-2.7027027" y="-1.35064935" width="12.1621622" height="105.350649"/><polygon id="Rectangle-115-Copy-2" fill="#FFC800" mask="url(#mask-2)" points="35.1351351 -1.35064935 47.2972973 -1.35064935 47.2972973 104 35.1351351 104"/></g><path d="M80.0783784,75.6363636 L119.272973,75.6363636 C120.764142,75.6363636 121.972973,76.8451948 121.972973,78.3363636 L121.972973,101.3 C121.972973,102.791169 120.764142,104 119.272973,104 L80.0783784,104 C78.5872096,104 77.3783784,102.791169 77.3783784,101.3 L77.3783784,78.3363636 C77.3783784,76.8451948 78.5872096,75.6363636 80.0783784,75.6363636 Z" id="Rectangle-119" fill-opacity="0.115942029" fill="#000000"/></g><path d="M32.6390718,56.1007045 L23.5613656,56.101948 C22.8152264,56.1019481 22.1402264,56.4041558 21.6516225,56.8927597 C21.1630186,57.3813636 20.8608108,58.0563636 20.8608108,58.8019481 L20.8593748,67.8694696 C21.7174309,68.1248126 22.6265402,68.2616883 23.5675676,68.2616883 C26.1810855,68.2616883 28.5472767,67.2030614 30.2600263,65.4912016 C31.972014,63.7801032 33.0310811,61.4162928 33.0310811,58.8051948 C33.0310811,57.8654628 32.8942732,56.9576025 32.6390718,56.1007045 Z" id="Combined-Shape" stroke="#78C800" stroke-width="8.1" fill="#78C800"/><path d="M176.658246,56.1006369 C176.403031,56.9575547 176.266216,57.8654381 176.266216,58.8051948 C176.266216,61.4162928 177.325283,63.7801032 179.037271,65.4912016 C180.750021,67.2030614 183.116212,68.2616883 185.72973,68.2616883 C187.74092,68.2616883 189.605673,67.6348214 191.138868,66.5657442 L191.139189,58.8017807 C191.139189,58.0563636 190.836981,57.3813636 190.348377,56.8927597 C189.859774,56.4041558 189.184774,56.1019481 188.439189,56.1019481 L176.658246,56.1006369 Z" id="Combined-Shape" stroke="#78C800" stroke-width="8.1" fill="#78C800"/><path d="M185.72973,100.673377 C183.116212,100.673377 180.750021,101.732004 179.037271,103.443863 C177.325283,105.154962 176.266216,107.518772 176.266216,110.12987 C176.266216,112.776764 177.354875,115.169012 179.107876,116.885596 L188.438959,116.885065 C189.184774,116.885065 189.859774,116.582857 190.348377,116.094253 C190.836981,115.605649 191.139189,114.930649 191.139189,114.185065 L191.138845,102.369305 C189.605655,101.300237 187.74091,100.673377 185.72973,100.673377 Z" id="Combined-Shape" stroke="#78C800" stroke-width="8.1" fill="#78C800"/><path d="M23.5675676,100.673377 C22.626501,100.673377 21.7173551,100.810264 20.8592675,101.065627 L20.8608108,114.184589 C20.8608108,114.930649 21.1630186,115.605649 21.6516225,116.094253 C22.1402264,116.582857 22.8152264,116.885065 23.5608108,116.885065 L30.1896708,116.885352 C31.9425257,115.168786 33.0310811,112.776638 33.0310811,110.12987 C33.0310811,107.518772 31.972014,105.154962 30.2600263,103.443863 C28.5472767,101.732004 26.1810855,100.673377 23.5675676,100.673377 Z" id="Combined-Shape" stroke="#78C800" stroke-width="8.1" fill="#78C800"/></g></svg>