<?xml version="1.0" encoding="UTF-8"?><svg width="212px" height="212px" viewBox="0 0 212 212" version="1.1" xmlns="http://www.w3.org/2000/svg" xmlns:xlink="http://www.w3.org/1999/xlink"><title>alcohol</title><desc>Created with Sketch.</desc><defs><rect id="path-1" x="0" y="0" width="27.2297297" height="86.7329157" rx="4.18"/></defs><g id="alcohol" stroke="none" stroke-width="1" fill="none" fill-rule="evenodd"><g id="Group-4" transform="translate(30.000000, 39.000000)"><g id="Group" transform="translate(0.000000, 0.038503)"><path d="M18.5779393,6.33368984 L43.5568224,6.33368984 C45.4842494,6.33368984 47.1333624,7.71776551 47.4676438,9.61598334 L49.444684,20.8426108 C49.8250461,23.0024978 48.3824561,25.0617766 46.2225691,25.4421387 C45.9951862,25.4821815 45.7647443,25.5023173 45.5338626,25.5023173 L16.600899,25.5023173 C14.4077763,25.5023173 12.629899,23.72444 12.629899,21.5313173 C12.629899,21.3004355 12.6500349,21.0699936 12.6900776,20.8426108 L14.6671178,9.61598334 C15.0013992,7.71776551 16.6505122,6.33368984 18.5779393,6.33368984 Z" id="Rectangle-5" fill="#743D00"/><rect id="Rectangle-8" fill="#743D00" x="14.4365904" y="0" width="33.3846154" height="8.14331551" rx="4.07165775"/><path d="M9.62332158,59.3428339 L30.6777547,38.8734403 L30.6777547,38.8734403 L51.7321878,59.3428339 C57.8844594,65.3241524 61.3555094,73.539838 61.3555094,82.1204334 L61.3555094,156.092934 C61.3555094,158.834338 59.1331628,161.056684 56.3917594,161.056684 L4.96375,161.056684 C2.22234657,161.056684 1.22390351e-15,158.834338 0,156.092934 L0,82.1204334 C2.50189381e-15,73.539838 3.47104992,65.3241524 9.62332158,59.3428339 Z" id="Rectangle-7" fill="#743D00"/><polygon id="Rectangle-6" fill="#743D00" points="16.368563 7.50659537 45.9765513 7.50659537 51.898149 109.828639 10.4469653 109.828639"/><rect id="Rectangle-199" fill="#1899D6" x="0" y="82.3379679" width="61.3555094" height="60.6224599"/></g><g id="Group-2" transform="translate(9.022869, 90.519786)" fill="#FFFFFF" stroke="#468CE7" stroke-width="2.7075"><path d="M30.7555138,16.5975946 C30.2346989,16.5968686 28.9314463,17.2719852 27.4918871,19.1291031 C26.6193944,20.2546713 25.6511408,21.7547272 24.813186,23.4493303 C23.578259,25.9467336 22.6391035,28.8592406 22.6403213,31.6218451 C22.6415644,34.4396206 23.5984884,37.3786122 24.8539791,39.8687202 C25.695986,41.5387353 26.6669943,43.0036357 27.5462689,44.0902573 C28.9366709,45.8085382 30.2110544,46.4560158 30.7896017,46.4568226 C31.3678244,46.4576286 32.6510593,45.8040395 34.0493669,44.0709925 C34.9339259,42.9746799 35.9094909,41.4990759 36.7500996,39.824917 C38.0043997,37.326849 38.9446759,34.3946683 38.9049431,31.6207616 C38.8658541,28.8918002 37.9005041,25.9703395 36.6526058,23.4573979 C35.8087873,21.7581675 34.8417422,20.2489506 33.9749093,19.119162 C32.5544287,17.2677755 31.2723845,16.5983154 30.7555138,16.5975946 Z" id="Oval-2" transform="translate(30.773251, 31.527209) scale(-1, -1) rotate(-313.000000) translate(-30.773251, -31.527209)"/><path d="M22.9232777,-0.740842659 C22.4200067,-0.740842659 21.1536933,-0.0963642704 19.7563175,1.71043688 C18.9197274,2.79214456 17.9909397,4.23346377 17.1866456,5.86139875 C16.0003854,8.26245392 15.0976433,11.0620745 15.095118,13.7161781 C15.0925458,16.4241038 16.004876,19.2473641 17.2045316,21.6387918 C18.0087186,23.2418813 18.9368058,24.6477171 19.7774605,25.690344 C21.1255584,27.3623304 22.3632278,27.9774906 22.9232777,27.9774906 C23.4821047,27.9774906 24.7286668,27.3525168 26.085728,25.6665689 C26.9339684,24.6127556 27.8698924,23.1946749 28.6768331,21.5860949 C29.8817928,19.1840921 30.7856776,16.3652296 30.7513207,13.7000166 C30.7175176,11.0777711 29.7972486,8.27165164 28.605022,5.85851836 C27.7993862,4.22786647 26.8754582,2.77988372 26.0470295,1.69610416 C24.6691953,-0.106426842 23.4235903,-0.740842659 22.9232777,-0.740842659 Z" id="Oval-2" transform="translate(22.923702, 13.618324) scale(-1, -1) rotate(-360.000000) translate(-22.923702, -13.618324)"/><path d="M18.4013828,8.31148129 C17.8977319,8.31102829 16.6314546,8.95400382 15.234322,10.760148 C14.3982977,11.8409189 13.4703507,13.2811556 12.6671285,14.9080904 C11.4824499,17.3076692 10.58179,20.105971 10.5816473,22.759612 C10.5815017,25.4665679 11.4965872,28.2896929 12.6987477,30.6813541 C13.5045377,32.2844483 14.4340689,33.6904916 15.2758322,34.7334082 C16.6245197,36.4043868 17.8623874,37.0208157 18.4222851,37.0213193 C18.981532,37.0218223 20.2280915,36.3982264 21.5849135,34.7130203 C22.4326292,33.6601367 23.3677497,32.2431245 24.1736478,30.6355238 C25.3770406,28.2350033 26.278835,25.4174537 26.2420697,22.7526599 C26.205904,20.1313209 25.2828826,17.3253262 24.0881347,14.9119774 C23.280857,13.2813049 22.3554305,11.8331144 21.5258452,10.7490572 C20.147416,8.94780065 18.9015677,8.31193118 18.4013828,8.31148129 Z" id="Oval-2" transform="translate(18.412412, 22.666400) scale(1, -1) rotate(-340.000000) translate(-18.412412, -22.666400)"/><path d="M27.4239638,8.31148129 C26.9203128,8.31102829 25.6540355,8.95400382 24.2569029,10.760148 C23.4208786,11.8409189 22.4929316,13.2811556 21.6897094,14.9080904 C20.5050308,17.3076692 19.604371,20.105971 19.6042282,22.759612 C19.6040827,25.4665679 20.5191681,28.2896929 21.7213287,30.6813541 C22.5271186,32.2844483 23.4566498,33.6904916 24.2984131,34.7334082 C25.6471006,36.4043868 26.8849683,37.0208157 27.4448661,37.0213193 C28.004113,37.0218223 29.2506724,36.3982264 30.6074944,34.7130203 C31.4552101,33.6601367 32.3903306,32.2431245 33.1962288,30.6355238 C34.3996215,28.2350033 35.301416,25.4174537 35.2646507,22.7526599 C35.2284849,20.1313209 34.3054635,17.3253262 33.1107156,14.9119774 C32.303438,13.2813049 31.3780115,11.8331144 30.5484261,10.7490572 C29.169997,8.94780065 27.9241486,8.31193118 27.4239638,8.31148129 Z" id="Oval-2" transform="translate(27.434993, 22.666400) scale(-1, -1) rotate(-340.000000) translate(-27.434993, -22.666400)"/><path d="M13.8841115,17.3746613 C13.3798667,17.3739584 12.1132787,18.0160228 10.7157179,19.8189603 C9.87911789,20.8982246 8.95065278,22.3365451 8.14716825,23.9614386 C6.96195489,26.3583056 6.06145128,29.1536904 6.06262003,31.8049577 C6.06381305,34.5092189 6.98142571,37.330062 8.18639305,39.7199633 C8.99392249,41.3215966 9.92523193,42.7264702 10.7685003,43.7685946 C12.1180498,45.4363894 13.3563341,46.053372 13.9165542,46.0541532 C14.4764416,46.0549337 15.7233126,45.4322386 17.0805429,43.7501023 C17.9288707,42.6986942 18.8645377,41.2835671 19.6707179,39.677976 C20.8746849,37.2801514 21.7763185,34.4655071 21.7381822,31.803053 C21.7006721,29.184325 20.7751222,26.3806117 19.5775763,23.9690665 C18.7685394,22.3398771 17.8413109,20.8928993 17.0102099,19.809682 C15.6309026,18.011959 14.3846085,17.3753593 13.8841115,17.3746613 Z" id="Oval-2" transform="translate(13.900996, 31.714407) scale(1, -1) rotate(-313.000000) translate(-13.900996, -31.714407)"/></g><rect id="Rectangle-200" fill="#924D00" x="9.02286902" y="64.2802139" width="18.9480249" height="12.6673797" rx="6.33368984"/><path d="M22.0056196,25.373262 C23.8357884,25.373262 25.3194333,26.856907 25.3194333,28.6870758 C25.3194333,28.742644 25.3180356,28.7982035 25.3152415,28.8537015 L24.1168717,52.656459 C24.0187038,54.6063294 22.4091385,56.1368984 20.4567984,56.1368984 C18.6266297,56.1368984 17.1429847,54.6532535 17.1429847,52.8230847 C17.1429847,52.7675164 17.1443824,52.7119569 17.1471765,52.656459 L18.3455464,28.8537015 C18.4437142,26.903831 20.0532795,25.373262 22.0056196,25.373262 Z" id="Rectangle-200" fill="#924D00"/><path d="M19.1952114,10.8962567 L29.060658,10.8962567 C30.057532,10.8962567 30.865658,11.7043827 30.865658,12.7012567 C30.865658,12.8092453 30.855967,12.917016 30.8367016,13.0232722 L29.6866591,19.3662134 C29.5309738,20.2248798 28.7832815,20.8491979 27.9106155,20.8491979 L18.0451689,20.8491979 C17.0482949,20.8491979 16.2401689,20.0410718 16.2401689,19.0441979 C16.2401689,18.9362093 16.2498599,18.8284385 16.2691252,18.7221823 L17.4191678,12.3792411 C17.5748531,11.5205747 18.3225454,10.8962567 19.1952114,10.8962567 Z" id="Rectangle-200" fill="#924D00"/></g><g id="Group-3" transform="translate(79.351351, 12.000000)"><g id="Rectangle" transform="translate(15.709459, 0.949495)"><mask id="mask-2" fill="white"><use xlink:href="#path-1"/></mask><use id="Mask" fill="#4E4A4A" xlink:href="#path-1"/><rect fill="#D93C5E" mask="url(#mask-2)" x="-3.14189189" y="-4.17989955" width="32.4662162" height="48.0688449" rx="2.09"/></g><path d="M29.3243243,44.8384403 C45.5197014,44.8384403 58.6486486,57.9673875 58.6486486,74.1627646 L58.6486486,179.64 C58.6486486,184.257101 54.9057492,188 50.2886486,188 L8.36,188 C3.74289949,188 -1.2109251e-15,184.257101 0,179.64 L0,74.1627646 C5.12206568e-15,57.9673875 13.1289472,44.8384403 29.3243243,44.8384403 Z" id="Rectangle-201-Copy" fill="#4E4A4A"/><rect id="Rectangle-5" fill="#A09797" x="10.472973" y="80.3675865" width="13.6148649" height="102.407539" rx="3.135"/><rect id="Rectangle-202" fill="#D93C5E" x="6.28378378" y="89.7723605" width="47.1283784" height="71.0582924" rx="3.135"/><rect id="Rectangle-201" fill="#D93C5E" x="12.5675676" y="0.477399695" width="33.5135135" height="14.6296484" rx="3.135"/><ellipse id="Oval-59" fill="#A09797" cx="17.2804054" cy="65.2154506" rx="7.85472973" ry="7.83731166"/><rect id="Rectangle-5" fill="#EE476B" x="10.472973" y="89.7723605" width="13.6148649" height="71.0582924"/><rect id="Rectangle-205" fill="#EE476B" x="15.7094595" y="2.56734947" width="19.8986486" height="5.22487444" rx="2.61243722"/></g><g id="Group-5" transform="translate(104.000000, 98.000000)"><path d="M51.8243677,3.83402298 L90.6855942,48.6530232 C92.2775333,50.4890208 92.0796848,53.2679125 90.2436872,54.8598516 C89.4436086,55.553576 88.4201786,55.9354839 87.3612265,55.9354839 L9.63877346,55.9354839 C7.20872056,55.9354839 5.23877346,53.9655368 5.23877346,51.5354839 C5.23877346,50.4765318 5.62068131,49.4531018 6.31440578,48.6530232 L45.1756323,3.83402298 C46.7675714,1.99802541 49.5464631,1.80017691 51.3824607,3.39211598 C51.540051,3.5287579 51.6877258,3.67643263 51.8243677,3.83402298 Z" id="Triangle" fill="#BBF2FF" opacity="0.957142857" transform="translate(48.500000, 27.967742) scale(1, -1) translate(-48.500000, -27.967742)"/><rect id="Rectangle" fill="#BEF3FF" x="44.0909091" y="36.1935484" width="7.71590909" height="65.8064516"/><path d="M48.5,77.2181085 C50.6200608,77.2181085 52.3387097,78.9367574 52.3387097,81.0568182 L52.3387097,115.265762 C52.3387097,117.385823 50.6200608,119.104472 48.5,119.104472 C46.3799392,119.104472 44.6612903,117.385823 44.6612903,115.265762 L44.6612903,81.0568182 C44.6612903,78.9367574 46.3799392,77.2181085 48.5,77.2181085 Z" id="Rectangle" fill="#BEF3FF" transform="translate(48.500000, 98.161290) rotate(-270.000000) translate(-48.500000, -98.161290)"/><ellipse id="Oval" fill="#78C800" opacity="0.782738095" cx="47.9488636" cy="25.7741935" rx="15.9829545" ry="15.9032258"/><ellipse id="Oval" fill="#FF4B4B" opacity="0.782738095" cx="47.9488636" cy="25.7741935" rx="8.26704545" ry="8.22580645"/></g></g></svg>