<?xml version="1.0" encoding="UTF-8"?><svg width="212px" height="212px" viewBox="0 0 212 212" version="1.1" xmlns="http://www.w3.org/2000/svg" xmlns:xlink="http://www.w3.org/1999/xlink"><title>bird</title><desc>Created with Sketch.</desc><g id="bird" stroke="none" stroke-width="1" fill="none" fill-rule="evenodd"><g id="Group" transform="translate(25.000000, 28.000000)"><path d="M127.874809,78.46875 L127.907162,78.46875 C134.19219,78.46875 139.287212,83.5637719 139.287212,89.8488 L139.287212,150.61995 C139.287212,156.904978 134.19219,162 127.907162,162 L127.874809,162 C121.589781,162 116.494759,156.904978 116.494759,150.61995 L116.494759,89.8488 C116.494759,83.5637719 121.589781,78.46875 127.874809,78.46875 Z" id="Rectangle-3" fill="#FF4B4B"/><path d="M81.0074795,0 L98.7672956,0 C121.145827,-4.11086959e-15 139.287212,18.1413844 139.287212,40.5199161 L139.287212,139.21875 L139.287212,139.21875 L127.856754,139.21875 C89.4125582,139.21875 58.2473795,108.053571 58.2473795,69.609375 L58.2473795,22.7601 C58.2473795,10.1900439 68.4374233,2.30908185e-15 81.0074795,0 Z" id="Rectangle-295" fill="#FF4B4B"/><path d="M120.027254,30.375 C123.523899,30.375 126.358491,33.2095913 126.358491,36.7062369 L126.358491,50.6218881 C126.358491,54.1185337 123.523899,56.953125 120.027254,56.953125 C116.530608,56.953125 113.696017,54.1185337 113.696017,50.6218881 L113.696017,36.7062369 C113.696017,33.2095913 116.530608,30.375 120.027254,30.375 Z" id="Rectangle-3-Copy" fill="#CB1F1F"/><path d="M135.789957,30.375 C137.631373,30.375 143.085954,23.6243621 143.085954,16.453125 C143.085954,9.28188794 137.526901,2.53125 135.789957,2.53125 C134.053013,2.53125 129.157233,10.794713 129.157233,16.453125 C129.157233,22.111537 133.948541,30.375 135.789957,30.375 Z" id="Oval" fill="#FF4B4B" transform="translate(136.121593, 16.453125) rotate(-315.000000) translate(-136.121593, -16.453125)"/><path d="M135.789957,43.03125 C137.631373,43.03125 143.085954,36.2806121 143.085954,29.109375 C143.085954,21.9381379 137.526901,15.1875 135.789957,15.1875 C134.053013,15.1875 129.157233,23.450963 129.157233,29.109375 C129.157233,34.767787 133.948541,43.03125 135.789957,43.03125 Z" id="Oval" fill="#FF4B4B" transform="translate(136.121593, 29.109375) rotate(-270.000000) translate(-136.121593, -29.109375)"/><path d="M32.90625,0 L74.7247773,0 C92.8983973,-1.04438672e-14 107.631027,14.73263 107.631027,32.90625 L107.631027,56.96135 C107.631027,61.8497052 103.668232,65.8125 98.7798773,65.8125 L8.85115,65.8125 C3.96279484,65.8125 4.15136453e-15,61.8497052 0,56.96135 L0,32.90625 C-2.22562656e-15,14.73263 14.73263,3.33843984e-15 32.90625,0 Z" id="Rectangle" fill="#FFC800"/><rect id="Rectangle-296" fill="#FFC800" x="81" y="124.5625" width="40.293501" height="13.921875" rx="6.954475"/><rect id="Rectangle-2" fill="#FFD900" x="27.8574423" y="5.0625" width="29.1236897" height="11.390625" rx="5.690025"/></g></g></svg>