<?xml version="1.0" encoding="UTF-8"?><svg width="212px" height="212px" viewBox="0 0 212 212" version="1.1" xmlns="http://www.w3.org/2000/svg" xmlns:xlink="http://www.w3.org/1999/xlink"><title>gold</title><desc>Created with Sketch.</desc><defs><path d="M18.4875964,0 L66.5108515,0 C69.1892708,-4.92017653e-16 71.5806442,1.67804202 72.4916566,4.19676923 L84.8905794,38.4767699 C86.0852985,41.7798774 84.3761121,45.4260863 81.0730047,46.6208055 C80.3793723,46.8716892 79.6473843,47 78.9097742,47 L6.0886736,47 C2.57614278,47 -0.271326062,44.1525312 -0.271326062,40.6400003 C-0.271326062,39.9023903 -0.143015241,39.1704023 0.107868487,38.4767699 L12.5067913,4.19676923 C13.4178036,1.67804202 15.809177,-3.96160767e-16 18.4875964,0 Z" id="path-1"/><path d="M66.5108515,-2.13162821e-14 C69.1892708,-2.18082997e-14 71.5806442,1.67804202 72.4916566,4.19676923 L74.6616528,10.195 L43.0446528,47 L6.0886736,47 C3.76884287,47 1.73910326,45.7579723 0.628155797,43.9026179 L38.3416528,-2.13162821e-14 L66.5108515,-2.13162821e-14 Z" id="path-3"/><path d="M18.4875964,0 L66.5108515,0 C69.1892708,7.50158812e-15 71.5806442,1.67804202 72.4916566,4.19676923 L87.9733935,47 L87.9733935,47 L6.0886736,47 C2.57614278,47 -0.271326062,44.1525312 -0.271326062,40.6400003 C-0.271326062,39.9023903 -0.143015241,39.1704023 0.107868487,38.4767699 L12.5067913,4.19676923 C13.4178036,1.67804202 15.809177,-3.96160767e-16 18.4875964,0 Z" id="path-5"/><path d="M66.5108515,2.84217094e-14 C69.1892708,3.59232976e-14 71.5806442,1.67804202 72.4916566,4.19676923 L72.7716739,4.973 L36.6686739,47 L6.0886736,47 C2.57614278,47 -0.271326062,44.1525312 -0.271326062,40.6400003 C-0.271326062,39.9023903 -0.143015241,39.1704023 0.107868487,38.4767699 L0.975673938,36.075 L31.9656739,2.84217094e-14 L66.5108515,2.84217094e-14 Z" id="path-7"/><path d="M18.4875964,0 L66.5108515,0 C69.1892708,-5.82108817e-15 71.5806442,1.67804202 72.4916566,4.19676923 L84.8905794,38.4767699 C86.0852985,41.7798774 84.3761121,45.4260863 81.0730047,46.6208055 C80.3793723,46.8716892 79.6473843,47 78.9097742,47 L6.0886736,47 C2.57614278,47 -0.271326062,44.1525312 -0.271326062,40.6400003 C-0.271326062,39.9023903 -0.143015241,39.1704023 0.107868487,38.4767699 L12.5067913,4.19676923 C13.4178036,1.67804202 15.809177,-2.77507503e-15 18.4875964,0 Z" id="path-9"/><path d="M66.5108515,7.10542736e-15 C69.1892708,1.28433919e-15 71.5806442,1.67804202 72.4916566,4.19676923 L73.7167416,7.585 L39.8567416,47 L6.0886736,47 C2.76772297,47 0.0412652454,44.4546733 -0.246268027,41.2084515 L35.1537416,7.10542736e-15 L66.5108515,7.10542736e-15 Z" id="path-11"/></defs><g id="gold" stroke="none" stroke-width="1" fill="none" fill-rule="evenodd"><g id="Group" transform="translate(4.000000, 57.000000)"><path d="M22.5399008,47 L143.45805,47 C145.905468,47 148.135761,48.4043494 149.193456,50.6114148 L165.621499,84.8914155 C167.1395,88.0589925 165.802255,91.8574044 162.634678,93.3754059 C161.776731,93.7865609 160.837472,94 159.886093,94 L6.11185745,94 C2.59932663,94 -0.24814221,91.1525312 -0.24814221,87.6400003 C-0.24814221,86.6886215 -0.0347030822,85.7493626 0.376451891,84.8914155 L16.8044952,50.6114148 C17.8621896,48.4043494 20.0924827,47 22.5399008,47 Z" id="Rectangle" fill="#FFB200" fill-rule="nonzero"/><g id="Rectangle" transform="translate(119.000000, 47.000000)"><mask id="mask-2" fill="white"><use xlink:href="#path-1"/></mask><use id="Mask" fill="#FFD300" fill-rule="nonzero" xlink:href="#path-1"/><mask id="mask-4" fill="white"><use xlink:href="#path-3"/></mask><use id="Combined-Shape" fill="#FFDE00" fill-rule="nonzero" xlink:href="#path-3"/></g><g id="Rectangle" transform="translate(40.000000, 47.000000)"><mask id="mask-6" fill="white"><use xlink:href="#path-5"/></mask><use id="Mask" fill="#FFD300" fill-rule="nonzero" xlink:href="#path-5"/><mask id="mask-8" fill="white"><use xlink:href="#path-7"/></mask><use id="Combined-Shape" fill="#FFDE00" fill-rule="nonzero" xlink:href="#path-7"/></g><path d="M50.4235593,0 L138.574898,0 C141.255026,-1.02622942e-14 143.647541,1.68015192 144.557287,4.20115393 L156.927801,38.4811546 C158.120099,41.785137 156.40824,45.430092 153.104258,46.6223896 C152.411915,46.8722333 151.681456,47 150.945412,47 L38.0530447,47 C34.5405139,47 31.6930451,44.1525312 31.6930451,40.6400003 C31.6930451,39.9039561 31.8208118,39.1734979 32.0706555,38.4811546 L44.4411701,4.20115393 C45.350916,1.68015192 47.7434308,-3.95846799e-16 50.4235593,0 Z" id="Rectangle-Copy-5" fill="#FFB200" fill-rule="nonzero"/><g id="Rectangle" transform="translate(78.000000, 0.000000)"><mask id="mask-10" fill="white"><use xlink:href="#path-9"/></mask><use id="Mask" fill="#FFD300" fill-rule="nonzero" xlink:href="#path-9"/><mask id="mask-12" fill="white"><use xlink:href="#path-11"/></mask><use id="Combined-Shape" fill="#FFDE00" fill-rule="nonzero" xlink:href="#path-11"/></g></g></g></svg>