<?xml version="1.0" encoding="UTF-8"?><svg width="212px" height="212px" viewBox="0 0 212 212" version="1.1" xmlns="http://www.w3.org/2000/svg" xmlns:xlink="http://www.w3.org/1999/xlink"><title>boy + girl</title><desc>Created with Sketch.</desc><defs><path d="M50.3999978,32.6013027 L77.4899966,32.6013027 C91.7555111,32.6013027 103.319996,44.1657871 103.319996,58.4313016 L103.319996,89.931302 C103.319996,104.196816 91.7555111,115.761301 77.4899966,115.761301 L50.3999978,115.761301 C36.1344833,115.761301 24.5699989,104.196816 24.5699989,89.931302 L24.5699989,58.4313016 C24.5699989,44.1657871 36.1344833,32.6013027 50.3999978,32.6013027 Z" id="path-1"/><path d="M18.5649386,0 L73.2826522,0 C83.5357847,7.2231411e-15 91.8475908,8.31180611 91.8475908,18.5649386 L91.8475908,71.6558337 L91.8475908,71.6558337 L0,71.6558337 L0,18.5649386 C-4.80836026e-15,8.31180611 8.31180611,5.43618355e-15 18.5649386,0 Z" id="path-3"/><path d="M5.17078164,0 C8.02652549,-5.24591634e-16 10.3415633,2.3150378 10.3415633,5.17078164 L10.3415633,11.6653713 C10.3415633,14.5211152 8.02652549,16.836153 5.17078164,16.836153 C2.3150378,16.836153 -1.02678969e-13,14.5211152 -1.03028697e-13,11.6653713 L-1.03028697e-13,5.17078164 C-1.03378424e-13,2.3150378 2.3150378,5.24591634e-16 5.17078164,0 Z" id="path-5"/></defs><g id="boy-+-girl" stroke="none" stroke-width="1" fill="none" fill-rule="evenodd"><g id="Group-4-Copy" transform="translate(4.000000, -2.000000)"><g id="Group-3"><g id="Group" transform="translate(8.316000, 0.000000)"/><g id="Group-2" transform="translate(0.000000, 3.272315)"><path d="M45.2393904,13.1973031 L81.9898013,13.1973031 C97.6818675,13.1973031 110.402801,25.9182363 110.402801,41.6103025 L110.402801,74.1813018 C110.402801,89.8733681 97.6818675,102.594301 81.9898013,102.594301 L45.2393904,102.594301 C29.5473241,102.594301 16.826391,89.8733681 16.826391,74.1813018 L16.826391,41.6103025 C16.826391,25.9182363 29.5473241,13.1973031 45.2393904,13.1973031 Z" id="Rectangle-11" fill="#363636"/><path d="M20.1599991,71.2476794 L107.099995,71.2476794 C118.234055,71.2476794 127.259994,80.2736185 127.259994,91.4076786 L127.259994,105.08768 C127.259994,116.22174 118.234055,125.247679 107.099995,125.247679 L20.1599991,125.247679 C9.02593905,125.247679 4.91624278e-15,116.22174 0,105.08768 L0,91.4076786 C-1.3635291e-15,80.2736185 9.02593905,71.2476794 20.1599991,71.2476794 Z" id="Rectangle-11-Copy" fill="#363636"/><path d="M93.1630868,19.7319864 L78.7741018,26.939412 C76.5964066,28.030217 73.9483504,27.1459448 72.8595028,24.9643349 C72.553432,24.3510928 72.394087,23.6748833 72.394087,22.9892578 L72.394087,8.57440659 C72.394087,6.13529253 74.3678315,4.15799991 76.8025688,4.15799991 C77.486964,4.15799991 78.1619602,4.31763133 78.7741018,4.62425237 L93.1630868,11.831678 C95.3407821,12.9224829 96.2234675,15.5752994 95.1346199,17.7569093 C94.7080388,18.611605 94.0162489,19.3046386 93.1630868,19.7319864 Z" id="Triangle" fill="#FFB100" transform="translate(83.997544, 15.782316) rotate(-335.000000) translate(-83.997544, -15.782316)"/><path d="M90.8137672,27.1844061 C89.9606051,26.7570583 89.2688152,26.0640247 88.8422342,25.209329 C87.7533865,23.0277191 88.6360719,20.3749026 90.8137672,19.2840977 L105.202752,12.0766721 C105.814894,11.770051 106.48989,11.6104196 107.174285,11.6104196 C109.609022,11.6104196 111.582767,13.5877122 111.582767,16.0268263 L111.582767,30.4416775 C111.582767,31.127303 111.423422,31.8035125 111.117351,32.4167546 C110.028504,34.5983646 107.380447,35.4826367 105.202752,34.3918317 L90.8137672,27.1844061 Z" id="Triangle" fill="#FFB100" transform="translate(99.979310, 23.234736) rotate(-335.000000) translate(-99.979310, -23.234736)"/><path d="M104.256992,89.6142457 C112.016649,89.6142457 118.307094,83.3402179 118.307094,75.6008123 C118.307094,67.8614068 112.016649,61.5873789 104.256992,61.5873789 C96.4973346,61.5873789 90.2068897,67.8614068 90.2068897,75.6008123 C90.2068897,83.3402179 96.4973346,89.6142457 104.256992,89.6142457 Z" id="Oval" fill="#A56644"/><ellipse id="Oval" fill="#A56644" cx="22.7835717" cy="75.6008123" rx="14.0501019" ry="14.0134334"/><mask id="mask-2" fill="white"><use xlink:href="#path-1"/></mask><use id="Mask" fill="#A56644" xlink:href="#path-1"/><rect id="Rectangle-Copy-2" fill="#FFFFFF" mask="url(#mask-2)" x="65.8349987" y="50.2776833" width="24.5699989" height="32.1299986" rx="12.2849995"/><rect id="Rectangle-Copy-3" fill="#FFFFFF" mask="url(#mask-2)" x="36.4139999" y="50.2776833" width="24.5699989" height="32.1299986" rx="12.2849995"/><path d="M75.1947809,58.6536869 C78.6346361,58.6536869 81.4231897,61.4422405 81.4231897,64.8820957 L81.4231897,70.6952773 C81.4231897,74.1351325 78.6346361,76.9236861 75.1947809,76.9236861 C71.7549257,76.9236861 68.9663721,74.1351325 68.9663721,70.6952773 L68.9663721,64.8820957 C68.9663721,61.4422405 71.7549257,58.6536869 75.1947809,58.6536869 Z" id="Rectangle-4" fill="#363636" mask="url(#mask-2)"/><path d="M53.4321805,58.6536869 C56.8720357,58.6536869 59.6605893,61.4422405 59.6605893,64.8820957 L59.6605893,70.6952773 C59.6605893,74.1351325 56.8720357,76.9236861 53.4321805,76.9236861 C49.9923253,76.9236861 47.2037717,74.1351325 47.2037717,70.6952773 L47.2037717,64.8820957 C47.2037717,61.4422405 49.9923253,58.6536869 53.4321805,58.6536869 Z" id="Rectangle-4-Copy" fill="#363636" mask="url(#mask-2)"/><path d="M67.994383,65.0180533 C68.4595774,65.2002788 68.9656643,65.3002726 69.4949785,65.3002726 C71.7788419,65.3002726 73.6302791,63.4386727 73.6302791,61.1422727 C73.6302791,59.7491846 72.9489278,58.5161081 71.9030206,57.7615777 C71.2248292,57.272322 67.5945756,64.861441 67.994383,65.0180533 Z" id="Path-Copy-4" fill="#FFFFFF" mask="url(#mask-2)"/><circle id="Oval-Copy-23" fill="#FFFFFF" transform="translate(48.993525, 60.891961) scale(-1, 1) translate(-48.993525, -60.891961)" cx="48.9935249" cy="60.8919611" r="3.9442787"/><path d="M27.4049988,9.32768448 C39.7568467,9.32768448 49.7699978,19.3408356 49.7699978,31.6926835 L49.7699978,44.292683 C49.7699978,56.6445308 39.7568467,66.657682 27.4049988,66.657682 C15.0531509,66.657682 5.03999978,56.6445308 5.03999978,44.292683 L5.03999978,31.6926835 C5.03999978,19.3408356 15.0531509,9.32768448 27.4049988,9.32768448 Z" id="Rectangle-Copy-26" fill="#363636"/></g><path d="M87.5596831,73.6080031 L87.5596831,73.6080031 L87.5596831,73.6080031 L87.5596831,93.7050027 L67.4626836,93.7050027 C67.4626836,82.6057363 76.4604167,73.6080031 87.5596831,73.6080031 Z" id="Rectangle" fill="#A56644" transform="translate(77.511183, 83.656503) rotate(-330.000000) translate(-77.511183, -83.656503)"/><path d="M59.5979988,73.6080031 L59.5979988,73.6080031 L59.5979988,73.6080031 L59.5979988,93.7050027 L39.5009993,93.7050027 C39.5009993,82.6057363 48.4987325,73.6080031 59.5979988,73.6080031 Z" id="Rectangle-Copy" fill="#A56644" transform="translate(49.549499, 83.656503) scale(-1, 1) rotate(-330.000000) translate(-49.549499, -83.656503)"/><path d="M51.9106302,95.8965798 C51.1457333,95.2304936 51.0680262,94.0731904 51.7370664,93.3116708 C52.4061067,92.5501512 53.5685423,92.4727872 54.3334391,93.1388734 C56.8425619,95.3238636 60.0040657,96.5389209 63.3491775,96.5389209 C66.7428937,96.5389209 69.9472228,95.2880645 72.4717744,93.0448756 C73.2299417,92.3712065 74.3930964,92.4369921 75.0697531,93.1918119 C75.7464099,93.9466316 75.6803325,95.1046507 74.9221652,95.7783198 C71.7321916,98.6127691 67.6592701,100.202693 63.3491775,100.202693 C59.1007488,100.202693 55.0818045,98.6580967 51.9106302,95.8965798 Z" id="Oval-24" fill="#914D28" fill-rule="nonzero"/><path d="M61.002294,84.0833249 L65.8746383,84.0833249 C68.1811424,84.0833249 70.0509334,85.9531159 70.0509334,88.25962 C70.0509334,90.5661241 68.1811424,92.4359151 65.8746383,92.4359151 L61.002294,92.4359151 C58.6957899,92.4359151 56.8259989,90.5661241 56.8259989,88.25962 C56.8259989,85.9531159 58.6957899,84.0833249 61.002294,84.0833249 Z" id="Rectangle-Copy-26" fill="#87401A"/><polygon id="Triangle-Copy-2" fill="#87401A" points="63.3224579 79.442997 68.658835 88.0276036 57.9860809 88.0276036"/></g></g><g id="Group-Copy" transform="translate(93.000000, 81.000000)"><g id="Path-6-Copy-4" transform="translate(38.405013, 74.741491)"><g id="Oval-4" transform="translate(0.108083, 0.100921)"/></g><g id="Group-13-Copy"><path d="M56.3250739,16.1221835 C64.2852743,16.1221835 70.7353778,22.59171 70.7353778,30.5659597 L70.7353778,32.732918 L41.910868,32.732918 L41.910868,30.5659597 C41.910868,22.59171 48.3648736,16.1221835 56.3250739,16.1221835 Z" id="Path-Copy-32" fill="#FF9600"/><path d="M40.9357211,30.2901629 C49.4330081,30.2901629 56.3231229,23.5090748 56.3231229,15.1450815 C56.3231229,6.78108809 49.4330081,0 40.9357211,0 C32.4345238,0 25.544409,6.78108809 25.544409,15.1450815 C25.544409,23.5090748 32.4345238,30.2901629 40.9357211,30.2901629 Z" id="Path-Copy-38" fill="#FF9600" fill-rule="nonzero"/><g id="Rectangle" transform="translate(11.132154, 30.045887)"><mask id="mask-4" fill="white"><use xlink:href="#path-3"/></mask><use id="Mask" fill="#FFC6B7" xlink:href="#path-3"/><rect id="Rectangle-Copy-7" fill="#FF9600" opacity="0.331519717" mask="url(#mask-4)" x="-59.1146728" y="-24.6718262" width="71.8169992" height="57.1604687" rx="10.9923978"/><rect id="Rectangle-Copy-11" fill="#FF9600" opacity="0.331519717" mask="url(#mask-4)" x="81.343744" y="-24.6718262" width="71.8169992" height="57.1604687" rx="10.9923978"/></g><circle id="Oval" fill="#FFC6B7" cx="105.300362" cy="66.0765248" r="8.1832295"/><circle id="Oval-Copy-3" fill="#FFC6B7" cx="8.32298569" cy="66.0765248" r="8.1832295"/><g id="Group-8-Copy-2" transform="translate(31.895572, 39.328357)"><g id="Group-7"><path d="M11.5175744,0 C17.8785552,-1.1684932e-15 23.0351489,5.15659373 23.0351489,11.5175744 L23.0351489,18.5234044 C23.0351489,24.8843851 17.8785552,30.0409788 11.5175744,30.0409788 C5.15659373,30.0409788 7.88442283e-15,24.8843851 0,18.5234044 L0,11.5175744 C9.97361371e-16,5.15659373 5.15659373,1.1684932e-15 11.5175744,0 Z" id="Rectangle-130-Copy-42" fill="#FFFFFF"/><path d="M13.6975264,3.83971421 C16.5532703,3.83971421 18.8683081,6.15475201 18.8683081,9.01049585 L18.8683081,15.5050855 C18.8683081,18.3608294 16.5532703,20.6758672 13.6975264,20.6758672 C10.8417826,20.6758672 8.52674479,18.3608294 8.52674479,15.5050855 L8.52674479,9.01049585 C8.52674479,6.15475201 10.8417826,3.83971421 13.6975264,3.83971421 Z" id="Combined-Shape" fill="#3D3D3D"/></g><g id="Group-7-Copy-3" transform="translate(38.148933, 15.500000) scale(-1, 1) translate(-38.148933, -15.500000) translate(26.148933, 0.000000)"><path d="M11.5175744,0 C17.8785552,-1.1684932e-15 23.0351489,5.15659373 23.0351489,11.5175744 L23.0351489,18.5234044 C23.0351489,24.8843851 17.8785552,30.0409788 11.5175744,30.0409788 C5.15659373,30.0409788 7.88442283e-15,24.8843851 0,18.5234044 L0,11.5175744 C9.97361371e-16,5.15659373 5.15659373,1.1684932e-15 11.5175744,0 Z" id="Rectangle-130-Copy-42" fill="#FFFFFF"/><g id="Oval-Copy-23" transform="translate(9.793918, 3.839714)"><mask id="mask-6" fill="white"><use xlink:href="#path-5"/></mask><use id="Mask" fill="#3D3D3D" xlink:href="#path-5"/></g></g></g><path d="M25.3001335,65.9554054 C37.490023,65.8916379 48.075295,68.8226045 57.0559494,74.7483053" id="Path-3" stroke="#FFC6B7" stroke-width="5.12978566"/><path d="M46.6879499,77.6952055 C50.4029978,80.5609419 54.1180457,80.5557439 57.8330936,77.6796114" id="Path-4" stroke="#EE9583" stroke-width="2.44275507" stroke-linecap="round" stroke-linejoin="round" transform="translate(52.260522, 78.760114) scale(-1, 1) rotate(-21.000000) translate(-52.260522, -78.760114)"/><circle id="Oval-Copy-20" fill="#FFFFFF" transform="translate(40.666592, 44.633724) scale(-1, 1) translate(-40.666592, -44.633724)" cx="40.6665925" cy="44.6337239" r="4.15268363"/><path d="M56.6895362,74.2597543 C59.1853645,74.2597543 61.208633,72.2319688 61.208633,69.7305686 C61.208633,67.2291684 56.6895362,61.3131524 56.6895362,61.3131524 C56.6895362,61.3131524 52.1704393,67.2291684 52.1704393,69.7305686 C52.1704393,72.2319688 54.1937079,74.2597543 56.6895362,74.2597543 Z" id="Oval-Copy-19" fill="#EE9583"/></g><rect id="Rectangle" fill="#2FE3FF" x="11.314079" y="99.3124712" width="91.7697519" height="28.9137574" rx="3.77135967"/><path d="M9.42222548,96.7331009 L104.201122,96.7331009 C109.327689,96.7331009 113.483592,100.889004 113.483592,106.01557 L113.483592,106.748397 C113.483592,111.874963 109.327689,116.030866 104.201122,116.030866 L9.42222548,116.030866 C4.29565925,116.030866 0.139756193,111.874963 0.139756193,106.748397 L0.139756193,106.01557 C0.139756193,100.889004 4.29565925,96.7331009 9.42222548,96.7331009 Z" id="Rectangle" fill="#2FE3FF"/><rect id="Rectangle" fill="#FFFFFF" x="46.5521026" y="104.061366" width="5.12978566" height="20.0305916" rx="2.56489283"/><rect id="Rectangle-Copy-142" fill="#FFFFFF" x="62.1857351" y="104.061366" width="5.12978566" height="20.0305916" rx="2.56489283"/></g><path d="M50,117.052292 L87,117.052292 C88.1045695,117.052292 89,117.947723 89,119.052292 L89,126.052292 C89,128.813716 86.7614237,131.052292 84,131.052292 L53,131.052292 C50.2385763,131.052292 48,128.813716 48,126.052292 L48,119.052292 C48,117.947723 48.8954305,117.052292 50,117.052292 Z" id="Rectangle-Copy-5" fill="#FFB100" transform="translate(68.500000, 124.052292) scale(1, -1) translate(-68.500000, -124.052292)"/><path d="M153.211831,129.300491 C153.793493,129.610627 154.457637,129.786408 155.162837,129.786408 C157.456301,129.786408 159.315521,127.927188 159.315521,125.633724 C159.315521,124.581175 158.92393,123.620086 158.27849,122.888198 C157.51754,122.025331 151.901799,128.601997 153.211831,129.300491 Z" id="Path" fill="#FFFFFF"/></g></svg>