<?xml version="1.0" encoding="UTF-8"?><svg width="212px" height="212px" viewBox="0 0 212 212" version="1.1" xmlns="http://www.w3.org/2000/svg" xmlns:xlink="http://www.w3.org/1999/xlink"><title>judge m</title><desc>Created with Sketch.</desc><g id="judge-m" stroke="none" stroke-width="1" fill="none" fill-rule="evenodd"><g id="Group-5" transform="translate(5.000000, 26.000000)"><g id="Group-4"><g id="Group-2"><g id="Group"><path d="M26,112 L113,112 C127.359403,112 139,123.640597 139,138 L139,180.9 C139,182.059798 138.059798,183 136.9,183 L2.0999999,183 C0.940201983,183 5.86123491e-16,182.059798 0,180.9 L0,138 C-1.75851975e-15,123.640597 11.6405965,112 26,112 Z" id="Rectangle-Copy-59" fill="#174E96"/><path d="M164,106 C183.882251,106 200,122.117749 200,142 L200,179.85 C200,181.589697 198.589697,183 196.85,183 L128,183 L128,183 L128,142 C128,122.117749 144.117749,106 164,106 Z" id="Rectangle-Copy-13" fill="#174E96"/><rect id="Rectangle-Copy-14" fill="#093165" x="27" y="127" width="9" height="50" rx="4.5"/><rect id="Rectangle-Copy-12" fill="#093165" x="46" y="143" width="9" height="35" rx="4.5"/><rect id="Rectangle-Copy-11" fill="#093165" x="65" y="149" width="9" height="28" rx="4.5"/><rect id="Rectangle-Copy-8" fill="#093165" x="84" y="139" width="9" height="39" rx="4.5"/><rect id="Rectangle-Copy-7" fill="#093165" x="103" y="136" width="9" height="42" rx="4.5"/><path d="M29.5999994,112 L108.400001,112 C115.358788,112 121,117.641212 121,124.599999 L121,134.5 C121,146.926407 110.926407,157 98.5,157 L39.5,157 C27.0735931,157 17,146.926407 17,134.5 L17,124.599999 C17,117.641212 22.6412119,112 29.5999994,112 Z" id="Rectangle" fill="#3D70B3"/><path d="M44.2999997,113 L73,113 L73,113 L73,133.583333 L48.6244796,145.713057 C44.9902832,147.521502 40.5781504,146.041438 38.7697051,142.407242 C38.2634673,141.389922 38,140.269079 38,139.132762 L38,119.3 C38,115.820606 40.8206059,113 44.2999997,113 Z" id="Rectangle-Copy-10" fill="#FFFFFF"/><path d="M71.2999997,113 L100,113 L100,113 L100,133.583333 L75.6244796,145.713057 C71.9902832,147.521502 67.5781504,146.041438 65.7697051,142.407242 C65.2634673,141.389922 65,140.269079 65,139.132762 L65,119.3 C65,115.820606 67.8206059,113 71.2999997,113 Z" id="Rectangle-Copy-9" fill="#FFFFFF" transform="translate(82.500000, 132.000000) scale(-1, 1) translate(-82.500000, -132.000000)"/><circle id="Oval" fill="#093165" cx="69" cy="141" r="7"/><g id="Group-3" transform="translate(129.000000, 25.000000)"><rect id="Rectangle" fill="#E28F6B" x="34" y="69" width="29" height="40" rx="14.5"/><rect id="Rectangle-Copy-3" fill="#E28F6B" transform="translate(50.284181, 72.745913) rotate(-289.000000) translate(-50.284181, -72.745913)" x="32.7841813" y="65.2459134" width="35" height="15" rx="7.5"/><rect id="Rectangle" fill="#834320" x="10" y="7" width="49" height="18"/><rect id="Rectangle" fill="#A56644" x="17" y="1" width="35" height="33" rx="6.29999971"/><path d="M6.5,0 L10.1650002,0 C11.7307274,-2.87619412e-16 13,1.26927264 13,2.8349998 L13,30.1650002 C13,31.7307274 11.7307274,33 10.1650002,33 L6.5,33 C2.91014913,33 4.39629938e-16,30.0898509 0,26.5 L0,6.5 C-4.39629938e-16,2.91014913 2.91014913,6.59444907e-16 6.5,0 Z" id="Rectangle-Copy-5" fill="#A56644"/><path d="M62.5,0 L66.1650002,0 C67.7307274,-2.87619412e-16 69,1.26927264 69,2.8349998 L69,30.1650002 C69,31.7307274 67.7307274,33 66.1650002,33 L62.5,33 C58.9101491,33 56,30.0898509 56,26.5 L56,6.5 C56,2.91014913 58.9101491,6.59444907e-16 62.5,0 Z" id="Rectangle-Copy-6" fill="#A56644" transform="translate(62.500000, 16.500000) scale(-1, 1) translate(-62.500000, -16.500000)"/><rect id="Rectangle" fill="#A56644" x="28" y="36" width="14" height="90" rx="6.29999971"/><rect id="Rectangle" fill="#834320" x="25" y="28" width="20" height="18" rx="5"/><rect id="Rectangle" fill="#FFC800" x="23" y="1" width="24" height="33"/><rect id="Rectangle" fill="#FFE23E" x="23" y="5" width="24" height="9" rx="4.5"/><path d="M38.6999993,75.036497 L44.5,75.036497 C54.1649831,75.036497 62,82.8715139 62,92.536497 L62,95.3364977 C62,103.455083 55.4185861,110.036497 47.3000007,110.036497 L38.6999993,110.036497 C30.5814139,110.036497 24,103.455083 24,95.3364977 L24,89.7364963 C24,81.6179109 30.5814139,75.036497 38.6999993,75.036497 Z" id="Rectangle" fill="#E28F6B" transform="translate(43.000000, 92.536497) rotate(-345.000000) translate(-43.000000, -92.536497)"/><rect id="Rectangle" fill="#E28F6B" x="22.5838801" y="69.9101767" width="29" height="15" rx="7.5"/></g><rect id="Rectangle" fill="#E28F6B" transform="translate(69.500000, 59.500000) scale(1, -1) translate(-69.500000, -59.500000)" x="19" y="46" width="101" height="27" rx="12.8249998"/><rect id="Rectangle-Copy-54" fill="#854C2C" x="27" y="0" width="85" height="80" rx="18.9999998"/><path d="M53.0999998,22 L86.9000002,22 C96.3440693,22 104,29.6559307 104,39.0999998 L104,73 C104,91.7776815 88.7776815,107 70,107 C51.2223185,107 36,91.7776815 36,73 L36,39.0999998 C36,29.6559307 43.6559307,22 53.0999998,22 Z" id="Rectangle-Copy-55" fill="#E28F6B"/></g><g id="Oval" transform="translate(43.851529, 86.333376)"/></g></g><rect id="Rectangle" fill="#C76E47" x="64" y="30" width="5" height="9" rx="2.37499997"/><rect id="Rectangle-Copy-2" fill="#C76E47" x="73" y="33" width="5" height="13" rx="2.37499997"/><path d="M92.5221047,16.4418307 C98.8733793,16.4418307 104.022105,21.5905561 104.022105,27.9418307 L104.022105,45.4418307 L104.022105,45.4418307 L81.0221047,45.4418307 L81.0221047,27.9418307 C81.0221047,21.5905561 86.1708301,16.4418307 92.5221047,16.4418307 Z" id="Rectangle-Copy-4" fill="#E28F6B"/><path d="M47.4924843,16.4844 C53.8437589,16.4844 58.9924843,21.6331254 58.9924843,27.9844 L58.9924843,45.4844 L58.9924843,45.4844 L35.9924843,45.4844 L35.9924843,27.9844 C35.9924843,21.6331254 41.1412097,16.4844 47.4924843,16.4844 Z" id="Rectangle-Copy-18" fill="#E28F6B"/><path d="M54.5,55 L83.5,55 C101.449254,55 116,69.5507456 116,87.5 L116,104.8 C116,113.194728 109.194728,120 100.8,120 L37.1999998,120 C28.8052717,120 22,113.194728 22,104.8 L22,87.5 C22,69.5507456 36.5507456,55 54.5,55 Z" id="Rectangle-Copy-52" fill="#E28F6B"/><path d="M46.7000621,93.2506535 C48.6978769,88.2881766 54.3750501,85.7945179 59.4929401,87.5724202 L59.7933154,87.6819431 L60.9873377,88.1380771 C66.994828,90.4330262 73.5637206,90.9278257 79.8533583,89.5672602 L80.5029799,89.4198913 C85.9236315,88.1328238 91.3890342,91.370023 92.7102985,96.6503781 C94.0315628,101.930733 90.7083527,107.254681 85.287701,108.541748 C75.0112574,110.981764 64.2245796,110.347447 54.3329154,106.731095 L53.6107528,106.461163 L52.4167305,106.005029 C47.2225141,104.020762 44.6630744,98.310434 46.7000621,93.2506535 Z" id="Mask" fill="#892E0F" fill-rule="nonzero" transform="translate(69.500000, 98.500000) scale(-1, -1) rotate(-3.000000) translate(-69.500000, -98.500000)"/><rect id="Rectangle" fill="#FFFFFF" transform="translate(70.500000, 91.500000) rotate(-360.000000) translate(-70.500000, -91.500000)" x="51" y="86" width="39" height="11" rx="3.42000009"/><path d="M48,78 C41.4681863,81.3554736 37,88.1563531 37,96" id="Path" stroke="#C76E47" stroke-width="4.74999994" stroke-linecap="round" stroke-linejoin="round"/><path d="M102,78 C95.4681863,81.3554736 91,88.1563531 91,96" id="Path-Copy" stroke="#C76E47" stroke-width="4.74999994" stroke-linecap="round" stroke-linejoin="round" transform="translate(96.500000, 87.000000) scale(-1, 1) translate(-96.500000, -87.000000)"/><path d="M53,74 L87,74 C91.9705627,74 96,78.0294373 96,83 L96,90.1 C96,91.149341 95.149341,92 94.1,92 L45.9,92 C44.850659,92 44,91.149341 44,90.1 L44,83 C44,78.0294373 48.0294373,74 53,74 Z" id="Rectangle" fill="#854C2C"/><rect id="Rectangle" fill="#FFFFFF" x="45" y="42" width="21" height="29" rx="10.4499999"/><rect id="Rectangle-Copy-15" fill="#FFFFFF" x="75" y="42" width="21" height="29" rx="10.4499999"/><path d="M70,49 C74.1404669,49 77.4969785,52.3565116 77.4969785,56.4969785 C77.4969785,57.435176 77.320878,58.3650377 76.9778239,59.2382664 L72.6526417,70.2478211 C72.0771007,71.7128346 70.4229043,72.4338946 68.9578908,71.8583535 C68.2205407,71.5686803 67.6370315,70.9851712 67.3473583,70.2478211 L63.0221761,59.2382664 C61.5082046,55.3845207 63.4049663,51.0331261 67.258712,49.5191546 C68.1319407,49.1761004 69.0618025,49 70,49 Z" id="Rectangle" fill="#C76E47" transform="translate(70.000000, 63.000000) scale(1, -1) translate(-70.000000, -63.000000)"/><path d="M74.3401765,39.1199679 L93.6401765,35.610877 C95.1887991,35.3293093 96.6724615,36.3564601 96.9540292,37.9050827 C96.9846144,38.0733009 97,38.2439301 97,38.4149062 L97,42.15 C97,43.7240116 95.7240116,45 94.15,45 L74.7272727,45 C73.2210416,45 72,43.7789584 72,42.2727273 L72,41.9239971 C72,40.5466316 72.985028,39.3663585 74.3401765,39.1199679 Z" id="Rectangle" fill="#854C2C" transform="translate(84.500000, 40.000000) rotate(-11.000000) translate(-84.500000, -40.000000)"/><path d="M46.3401765,39.1199679 L65.6401765,35.610877 C67.1887991,35.3293093 68.6724615,36.3564601 68.9540292,37.9050827 C68.9846144,38.0733009 69,38.2439301 69,38.4149062 L69,42.15 C69,43.7240116 67.7240116,45 66.15,45 L46.7272727,45 C45.2210416,45 44,43.7789584 44,42.2727273 L44,41.9239971 C44,40.5466316 44.985028,39.3663585 46.3401765,39.1199679 Z" id="Rectangle-Copy" fill="#854C2C" transform="translate(56.500000, 40.000000) scale(-1, 1) rotate(-11.000000) translate(-56.500000, -40.000000)"/><rect id="Rectangle-Copy-16" fill="#4B4B4B" x="52" y="48" width="12" height="18" rx="6"/><rect id="Rectangle-Copy-17" fill="#4B4B4B" x="77" y="48" width="12" height="18" rx="6"/></g><path d="M60,28.3049957 L90,28.3049957 L90,40 C90,48.2842712 83.2842712,55 75,55 C66.7157288,55 60,48.2842712 60,40 L60,28.3049957 L60,28.3049957 Z" id="Rectangle" fill="#854C2C"/><path d="M74,128 C79.6212025,128 84.5653602,130.898773 87.4191639,135.283011 C86.6364788,135.244936 85.8470845,135.115378 85.0652509,134.888875 L84.7595553,134.795222 L83.5432972,134.402204 C77.4239316,132.424808 70.8381455,132.274476 64.6283341,133.962351 L63.9873155,134.143516 C63.0181844,134.427954 62.0398029,134.563984 61.0778673,134.565062 C63.9880669,130.584543 68.6922073,128 74,128 Z" id="Combined-Shape" fill="#C45225" fill-rule="nonzero"/></g></svg>