<?xml version="1.0" encoding="UTF-8"?>
<svg width="212px" height="212px" viewBox="0 0 212 212" version="1.1" xmlns="http://www.w3.org/2000/svg" xmlns:xlink="http://www.w3.org/1999/xlink">
    <!-- Generator: Sketch 63.1 (92452) - https://sketch.com -->
    <title>depth</title>
    <desc>Created with Sketch.</desc>
    <defs>
        <path d="M6.48533276,2.01765908 L22.5,7 C37.1536072,11.5589 52.8463928,11.5589 67.5,7 L90,0 L90,0 L112.5,7 C127.153607,11.5589 142.846393,11.5589 157.5,7 L173.514667,2.01765908 C176.151431,1.19733245 178.953957,2.66984602 179.774284,5.3066102 C179.923902,5.78752701 180,6.28828962 180,6.79194296 L180,166 C180,168.761424 177.761424,171 175,171 L5,171 C2.23857625,171 3.38176876e-16,168.761424 0,166 L0,6.79194296 C1.43817996e-15,4.03051921 2.23857625,1.79194296 5,1.79194296 C5.50365334,1.79194296 6.00441596,1.86804052 6.48533276,2.01765908 Z" id="path-1"></path>
    </defs>
    <g id="depth" stroke="none" stroke-width="1" fill="none" fill-rule="evenodd">
        <g id="Rectangle" transform="translate(16.000000, 20.000000)">
            <mask id="mask-2" fill="white">
                <use xlink:href="#path-1"></use>
            </mask>
            <use id="Mask" fill="#1C8BF6" fill-rule="nonzero" xlink:href="#path-1"></use>
            <rect fill="#FFCE8E" fill-rule="nonzero" mask="url(#mask-2)" x="-12" y="151" width="204" height="37" rx="5"></rect>
        </g>
        <g id="Group-2" transform="translate(107.000000, 84.000000)">
            <g id="Group-10" transform="translate(1.572701, 0.000000)">
                <path d="M18.9302021,9.73337918 C18.9302021,4.3577823 23.3721422,0 28.8542446,0 L38.7782872,0 L38.7782872,25.0361273 L18.9302021,25.0361273 L18.9302021,9.73337918 Z" id="Rectangle-137" fill="#1CB0F6"></path>
                <path d="M70.7196685,33.9030891 C74.623766,32.5934495 77.4298214,28.9638588 77.4298214,24.6912959 L77.4298214,9.38854774 L67.5057788,9.38854774 C62.0236764,9.38854774 57.5817363,13.74633 57.5817363,19.1219269 L57.5817363,48.6842512 C57.5817363,54.0598481 62.0236764,58.4176304 67.5057788,58.4176304 L77.4298214,58.4176304 L77.4298214,43.1148823 C77.4298214,38.8423193 74.623766,35.2127287 70.7196685,33.9030891 L70.7196685,33.9030891 Z" id="Combined-Shape" fill="#1CB0F6"></path>
                <g id="Rectangle-4" transform="translate(0.126753, 8.332081)">
                    <path d="M33.4620279,0 C46.7129712,-2.4341588e-15 57.4549832,10.742012 57.4549832,23.9929553 C57.4549832,37.2438987 46.7129712,47.9859107 33.4620279,47.9859107 L23.9929553,47.9859107 C18.05691,47.9859107 12.6243532,45.8302199 8.43542447,42.2589779 L17.2299824,42.2586521 L17.2299824,27.5502376 C17.2299824,24.5875363 14.8282384,22.1857923 11.8655371,22.1857923 L11.8655371,22.1857923 L0.0670905229,22.1850542 C0.991346866,9.77857924 11.3501963,-1.06721608e-15 23.9929553,0 L33.4620279,0 Z" id="Combined-Shape" fill="#47D7FF"></path>
                    <rect id="Rectangle" fill="#1CB0F6" x="20" y="13" width="6" height="15" rx="3"></rect>
                </g>
                <path d="M42.3790858,61.9268202 C45.2347761,59.1252475 45.1512863,54.5010929 42.192606,51.598482 C39.2339258,48.695871 29.3172546,48.1862965 28.8451966,48.6494087 C28.3731385,49.1125209 28.8925564,58.8412634 31.8512366,61.7438744 C34.8099169,64.6464853 39.5233955,64.728393 42.3790858,61.9268202 Z" id="Oval-4" fill="#1CB0F6"></path>
            </g>
            <path d="M0,29.5810565 L6.91446011,29.5810565 C13.1592409,29.5810565 18.221636,34.5475153 18.221636,40.6739526 L18.221636,46.4845173 C18.221636,50.3142077 16.6063252,51.7668488 12.8372665,51.7668488 L4.3074956,51.7668488" id="Rectangle-35" stroke="#1CB0F6" stroke-width="6.43733433" stroke-linecap="round" stroke-linejoin="round"></path>
        </g>
        <line x1="51.5" y1="48" x2="51.5" y2="160" id="Path-62" stroke="#FFFFFF" stroke-width="8" fill-rule="nonzero"></line>
        <polyline id="Path-63" stroke="#FFFFFF" stroke-width="8" stroke-linecap="round" stroke-linejoin="round" fill-rule="nonzero" points="41 53 51.302428 43 61.604856 53"></polyline>
        <polyline id="Path-63-Copy" stroke="#FFFFFF" stroke-width="8" stroke-linecap="round" stroke-linejoin="round" fill-rule="nonzero" transform="translate(51.302428, 155.000000) scale(1, -1) translate(-51.302428, -155.000000) " points="41 160 51.302428 150 61.604856 160"></polyline>
    </g>
</svg>
