<?xml version="1.0" encoding="UTF-8"?>
<svg width="212px" height="212px" viewBox="0 0 212 212" version="1.1" xmlns="http://www.w3.org/2000/svg" xmlns:xlink="http://www.w3.org/1999/xlink">
    <!-- Generator: Sketch 64 (93537) - https://sketch.com -->
    <title>men</title>
    <desc>Created with Sketch.</desc>
    <defs>
        <path d="M123.398302,81.8027711 L123.300207,81.8171954 C122.698878,81.8965495 122.08544,81.937499 121.462438,81.937499 L120.075059,81.937499 C112.391364,81.937499 106.162499,75.7086336 106.162499,68.0249388 L106.162499,53.8125597 C106.162499,53.5917017 106.167645,53.3720456 106.177824,53.1537049 C114.376346,60.774943 120.446214,70.6547108 123.398302,81.8027711 Z" id="path-1"></path>
        <path d="M28.6360856,81.8027711 L28.5379912,81.8171954 C27.9366622,81.8965495 27.3232242,81.937499 26.7002219,81.937499 L25.3128427,81.937499 C17.6291479,81.937499 11.4002825,75.7086336 11.4002825,68.0249388 L11.4002825,53.8125597 C11.4002825,53.5917017 11.4054288,53.3720456 11.415608,53.1537049 C19.6141294,60.774943 25.6839981,70.6547108 28.6360856,81.8027711 Z" id="path-3"></path>
        <path d="M5.33429221,0 C8.28034045,-5.41180282e-16 10.6685844,2.38824397 10.6685844,5.33429221 L10.6685844,12.0342539 C10.6685844,14.9803022 8.28034045,17.3685462 5.33429221,17.3685462 C2.38824397,17.3685462 -4.58223488e-13,14.9803022 -4.57696096e-13,12.0342539 L-4.57696096e-13,5.33429221 C-4.58056883e-13,2.38824397 2.38824397,5.41180282e-16 5.33429221,0 Z" id="path-5"></path>
    </defs>
    <g id="men" stroke="none" stroke-width="1" fill="none" fill-rule="evenodd">
        <g id="Group-Copy" transform="translate(3.000000, 5.000000)">
            <path d="M55.2808809,-1.26362924e-13 C70.8483234,-1.29222616e-13 83.9256729,10.6613554 87.6098086,25.0809455 L87.5794506,25.0040287 C90.2186414,32.216925 96.0683762,35.4626846 104.94067,35.4626846 C105.094396,35.4626846 105.242644,35.4650626 105.385413,35.4698188 L105.705951,35.4619914 L105.705951,35.4619914 L106.129442,35.4585606 C120.27288,35.4585606 131.738402,46.9240827 131.738402,61.067521 C131.738402,75.2109592 120.27288,86.6764814 106.129442,86.6764814 C99.3704442,86.6764814 93.2230243,84.0580065 88.6462567,79.7801316 L88.6464014,82.8597613 C88.6464014,101.287029 73.708149,116.225282 55.2808809,116.225282 C37.8346941,116.225282 23.5158975,102.835333 22.0406633,85.771608 C11.1824089,82.8040751 3.20112005,72.867863 3.20112005,61.067521 C3.20112005,49.3128731 11.120717,39.4079463 21.9152215,36.3974299 L21.9153603,33.3655205 C21.9153603,14.9382524 36.8536127,-1.22977889e-13 55.2808809,-1.26362924e-13 Z" id="Combined-Shape-Copy" fill="#3D3D3D"></path>
            <path d="M67.3312492,39.8999995 C35.6542674,39.8999995 9.97499987,65.5155878 9.97499987,97.1140174 L9.97499987,128.6442 C9.97499987,135.823902 15.7952981,141.6442 22.9749999,141.6442 L111.687498,141.6442 C118.8672,141.6442 124.687498,135.823902 124.687498,128.6442 L124.687498,97.1140174 L124.687498,97.1140174 C124.687498,65.5155878 99.0082309,39.8999995 67.3312492,39.8999995 Z" id="Path" fill="#DA8E74" fill-rule="nonzero"></path>
            <path d="M53.224761,57.6201609 C59.6368976,57.6201609 64.8349613,62.8182246 64.8349613,69.2303612 L64.8349613,76.292533 C64.8349613,82.7046696 59.6368976,87.9027333 53.224761,87.9027333 C46.8126244,87.9027333 41.6145606,82.7046696 41.6145606,76.292533 L41.6145606,69.2303612 C41.6145606,62.8182246 46.8126244,57.6201609 53.224761,57.6201609 Z" id="Rectangle-130-Copy-45" fill="#FFFFFF"></path>
            <path d="M56.4302866,64.514881 C59.3089967,64.514881 61.6426523,66.8485366 61.6426523,69.7272468 L61.6426523,76.2740668 C61.6426523,79.1527769 59.3089967,81.4864326 56.4302866,81.4864326 C53.5515764,81.4864326 51.2179208,79.1527769 51.2179208,76.2740668 L51.2179208,69.7272468 C51.2179208,66.8485366 53.5515764,64.514881 56.4302866,64.514881 Z" id="Combined-Shape-Copy-3" fill="#3D3D3D"></path>
            <path d="M81.0490782,57.6201609 C87.4612148,57.6201609 92.6592785,62.8182246 92.6592785,69.2303612 L92.6592785,76.292533 C92.6592785,82.7046696 87.4612148,87.9027333 81.0490782,87.9027333 C74.6369416,87.9027333 69.4388778,82.7046696 69.4388778,76.292533 L69.4388778,69.2303612 C69.4388778,62.8182246 74.6369416,57.6201609 81.0490782,57.6201609 Z" id="Rectangle-130-Copy-44" fill="#FFFFFF" transform="translate(81.049078, 72.761447) scale(-1, 1) translate(-81.049078, -72.761447) "></path>
            <path d="M78.5822726,64.514881 C81.4609827,64.514881 83.7946384,66.8485366 83.7946384,69.7272468 L83.7946384,76.2740668 C83.7946384,79.1527769 81.4609827,81.4864326 78.5822726,81.4864326 C75.7035625,81.4864326 73.3699068,79.1527769 73.3699068,76.2740668 L73.3699068,69.7272468 C73.3699068,66.8485366 75.7035625,64.514881 78.5822726,64.514881 Z" id="Combined-Shape-Copy-2" fill="#3D3D3D" transform="translate(78.582273, 73.000657) scale(-1, 1) translate(-78.582273, -73.000657) "></path>
            <circle id="Oval-Copy-4" fill="#DA8E74" cx="9.48024015" cy="81.8748013" r="9.48024015"></circle>
            <circle id="Oval-Copy-2" fill="#DA8E74" cx="125.213042" cy="81.8748013" r="9.48024015"></circle>
            <rect id="Rectangle-Copy-219" fill="#3D3D3D" transform="translate(53.874385, 105.619578) scale(-1, 1) rotate(-60.000000) translate(-53.874385, -105.619578) " x="38.6075045" y="83.7042177" width="30.5337605" height="43.8307207" rx="15.2668802"></rect>
            <rect id="Rectangle-Copy-218" fill="#3D3D3D" x="46.5393607" y="100.465922" width="42.3532807" height="20.9304003"></rect>
            <rect id="Rectangle-Copy-217" fill="#3D3D3D" transform="translate(80.311167, 105.619578) rotate(-60.000000) translate(-80.311167, -105.619578) " x="65.0442868" y="83.7042177" width="30.5337605" height="43.8307207" rx="15.2668802"></rect>
            <polygon id="Rectangle-Copy-216" fill="#DA8E74" points="37.9209606 57.1276809 102.435842 57.1276809 102.435842 74.1182412 37.9209606 74.1182412"></polygon>
            <path d="M72.1483211,62.544961 L90.6163214,62.544961 C93.8801918,62.544961 96.5260815,65.1908507 96.5260815,68.4547211 C96.5260815,71.7185914 93.8801918,74.3644812 90.6163214,74.3644812 L72.1483211,74.3644812 C68.8844508,74.3644812 66.238561,71.7185914 66.238561,68.4547211 C66.238561,65.1908507 68.8844508,62.544961 72.1483211,62.544961 Z" id="Rectangle-Copy-215" fill="#3D3D3D"></path>
            <path d="M44.3232007,50.4792008 L62.791201,50.4792008 C66.0550714,50.4792008 68.7009611,53.1250905 68.7009611,56.3889609 C68.7009611,59.6528313 66.0550714,62.298721 62.791201,62.298721 L44.3232007,62.298721 C41.0593303,62.298721 38.4134406,59.6528313 38.4134406,56.3889609 C38.4134406,53.1250905 41.0593303,50.4792008 44.3232007,50.4792008 Z" id="Rectangle-Copy-213" fill="#3D3D3D"></path>
            <circle id="Oval-Copy-68" fill="#DA8E74" cx="67.223521" cy="86.6764814" r="7.14096011"></circle>
            <mask id="mask-2" fill="white">
                <use xlink:href="#path-1"></use>
            </mask>
            <use id="Combined-Shape" fill="#3D3D3D" xlink:href="#path-1"></use>
            <mask id="mask-4" fill="white">
                <use xlink:href="#path-3"></use>
            </mask>
            <use id="Combined-Shape-Copy-4" fill="#3D3D3D" transform="translate(20.018184, 67.545602) scale(-1, 1) translate(-20.018184, -67.545602) " xlink:href="#path-3"></use>
        </g>
        <g id="Group-23-Copy" transform="translate(105.000000, 67.000000)">
            <g id="Rectangle-Copy-13">
                <path d="M50.1479986,0 L51.1559985,0 C78.8519734,-1.21930954e-14 101.303997,22.4520237 101.303997,50.1479986 L101.303997,52.1639985 C101.303997,79.8599733 78.8519734,102.311997 51.1559985,102.311997 L50.1479986,102.311997 C22.4520237,102.311997 -3.71364866e-15,79.8599733 0,52.1639985 L0,50.1479986 C-1.04972061e-14,22.4520237 22.4520237,-2.01775932e-15 50.1479986,0 Z" id="Mask" fill="#0084C2"></path>
                <path d="M84.2831577,12.4986147 L31.6215847,56.6853605 L28.5439177,53.0175398 L80.4646351,9.45158524 C81.7873216,10.4058272 83.0616233,11.4229645 84.2831577,12.4986147 Z" id="Path" fill="#006AAD"></path>
            </g>
            <polygon id="Rectangle-Copy-10" fill="#C6775C" points="16.8839995 58.4939543 50.6328669 35.027999 83.9159976 58.4939543 83.9159976 132.047996 16.8839995 132.047996"></polygon>
            <path d="M27.2159992,79.6319977 C27.6837502,79.6319977 41.0610789,81.3093011 47.3759986,86.6879975" id="Path-2-Copy" stroke="#C6775C" stroke-width="5.29199985"></path>
            <path d="M27.3419992,87.1919975 L73.2059979,87.1919975 C88.3065671,87.1919975 100.547997,99.4334275 100.547997,114.533997 C100.547997,129.634566 88.3065671,141.875996 73.2059979,141.875996 L27.3419992,141.875996 C12.24143,141.875996 -2.7993508e-14,129.634566 -2.98427944e-14,114.533997 C-3.16920808e-14,99.4334275 12.24143,87.1919975 27.3419992,87.1919975 Z" id="Rectangle-Copy-9" fill="#3D3D3D"></path>
            <path d="M29.1496409,91.7562554 C26.8964835,93.1402485 25.412751,95.3107388 24.8379627,97.7030673 C24.2640606,100.091707 24.5968785,102.700349 25.9711706,104.963022 C30.1888866,111.907189 37.2377838,115.584574 45.7388572,116.032609 C48.3821255,116.171918 50.8319101,115.22175 52.655145,113.570843 C54.4722266,111.925508 55.6666519,109.583567 55.8047522,106.933594 C55.9420155,104.299683 55.0108353,101.858722 53.3752633,100.03199 C51.757678,98.2253473 49.447583,97.0156693 46.7429964,96.8298995 C44.6739017,96.7208512 43.1615627,96.2535905 42.3170808,94.9391908 C40.9381934,92.6770928 38.7781566,91.1904393 36.4007217,90.6127678 C34.0152088,90.0331335 31.409637,90.3680616 29.1496409,91.7562554 Z" id="Path-Copy-193" stroke="#3D3D3D" stroke-width="5.79599983" fill="#FFFFFF" fill-rule="nonzero"></path>
            <circle id="Oval-Copy-2" fill="#C6775C" cx="50.3999986" cy="85.9319975" r="7.81199978"></circle>
            <g id="Group-4-Copy-3" transform="translate(23.939999, 52.919998)">
                <g id="Group-7">
                    <path d="M11.8817834,0 C18.4439112,-1.20544332e-15 23.7635669,5.31965564 23.7635669,11.8817834 L23.7635669,19.1091519 C23.7635669,25.6712797 18.4439112,30.9909353 11.8817834,30.9909353 C5.31965564,30.9909353 8.0362888e-16,25.6712797 0,19.1091519 L0,11.8817834 C-8.0362888e-16,5.31965564 5.31965564,1.20544332e-15 11.8817834,0 Z" id="Rectangle-130-Copy-42" fill="#FFFFFF"></path>
                    <path d="M15.1622919,7.0559998 C18.1083402,7.0559998 20.4965841,9.44424377 20.4965841,12.390292 L20.4965841,19.0902537 C20.4965841,22.036302 18.1083402,24.424546 15.1622919,24.424546 C12.2162437,24.424546 9.82799972,22.036302 9.82799972,19.0902537 L9.82799972,12.390292 C9.82799972,9.44424377 12.2162437,7.0559998 15.1622919,7.0559998 Z" id="Combined-Shape" fill="#3D3D3D"></path>
                </g>
                <g id="Group-7-Copy-3" transform="translate(40.994744, 15.500000) scale(-1, 1) translate(-40.994744, -15.500000) translate(28.994744, 0.000000)">
                    <path d="M11.8817834,0 C18.4439112,-1.20544332e-15 23.7635669,5.31965564 23.7635669,11.8817834 L23.7635669,19.1091519 C23.7635669,25.6712797 18.4439112,30.9909353 11.8817834,30.9909353 C5.31965564,30.9909353 8.0362888e-16,25.6712797 0,19.1091519 L0,11.8817834 C-8.0362888e-16,5.31965564 5.31965564,1.20544332e-15 11.8817834,0 Z" id="Rectangle-130-Copy-42" fill="#FFFFFF"></path>
                    <g id="Oval-Copy-20" transform="translate(9.072000, 7.056000)">
                        <mask id="mask-6" fill="white">
                            <use xlink:href="#path-5"></use>
                        </mask>
                        <use id="Mask" fill="#3D3D3D" xlink:href="#path-5"></use>
                    </g>
                </g>
            </g>
        </g>
        <path d="M58.8279638,126.974669 C68.0622429,121.186691 75.1231518,123.351585 81.5007767,126.974669 C85.7525266,129.390058 84.3532673,134.198502 77.3029986,141.4 L63.2329939,141.4 C54.1401212,135.641765 52.6717778,130.833321 58.8279638,126.974669 Z" id="Path-21" fill="#DA8E74"></path>
        <path d="M162.284,124.203998 C164.649988,124.203998 166.568,126.12201 166.568,128.487998 C166.568,130.853986 164.649988,132.771998 162.284,132.771998 C161.174948,132.771998 160.164327,132.350564 159.403545,131.659102 C158.828727,131.136659 159.788879,128.651625 162.284,124.203998 Z" id="Path" fill="#FFFFFF"></path>
        <path d="M139.271999,132.267998 C136.906011,132.267998 134.987999,130.349986 134.987999,127.983998 C134.987999,125.61801 136.906011,123.699998 139.271999,123.699998 C141.637987,123.699998 143.555999,125.61801 143.555999,127.983998 C143.555999,130.349986 141.637987,132.267998 139.271999,132.267998 Z" id="Oval-Copy-20" fill="#FFFFFF"></path>
    </g>
</svg>