<?xml version="1.0" encoding="UTF-8"?><svg width="212px" height="212px" viewBox="0 0 212 212" version="1.1" xmlns="http://www.w3.org/2000/svg" xmlns:xlink="http://www.w3.org/1999/xlink"><title>mouse</title><desc>Created with Sketch.</desc><g id="mouse" stroke="none" stroke-width="1" fill="none" fill-rule="evenodd"><g id="Group" transform="translate(11.000000, 14.000000)"><path d="M37.8025375,14.4144144 C41.0433743,22.3313298 38.7972635,30.0484747 31.064205,37.5658493 C19.4646172,48.8419112 12.2562437,64.6276386 12.2562437,82.1003014 C12.2562437,116.36617 39.9793934,144.144144 74.1776316,144.144144" id="Oval" stroke="#F5A4A4" stroke-width="15.3" stroke-linecap="round" stroke-linejoin="round"/><path d="M110.720151,22.4814227 C111.638337,23.1892733 112.461515,24.0124519 113.169366,24.9306375 L150.711469,73.6282313 C151.016888,74.0244052 151.295064,74.4329851 151.546287,74.8517184 C160.792472,85.954291 166.355782,100.242936 166.355782,115.833532 C166.355782,151.182194 137.756587,179.837946 102.477693,179.837946 C67.1987977,179.837946 38.5996028,151.182194 38.5996028,115.833532 C38.5996028,100.240112 44.1649285,85.9491145 53.4139435,74.8458964 C53.6657866,74.4255969 53.9426287,74.0190457 54.2439165,73.6282313 L91.7860192,24.9306375 C96.3382034,19.0257894 104.815303,17.9292386 110.720151,22.4814227 Z" id="Combined-Shape" fill="#AFAFAF" transform="translate(102.477693, 99.745810) rotate(-232.000000) translate(-102.477693, -99.745810)"/><ellipse id="Oval-5" fill="#F5A4A4" cx="152.850877" cy="69.3693694" rx="29.6710526" ry="29.7297297"/><rect id="Rectangle" fill="#7D7C7C" x="136.666667" y="105.405405" width="12.5877193" height="25.2252252" rx="6.29385965"/><rect id="Rectangle-2" fill="#F5A4A4" x="159.144737" y="134.234234" width="19.7807018" height="19.8198198" rx="9.89035088"/></g></g></svg>