<?xml version="1.0" encoding="UTF-8"?>
<svg width="212px" height="212px" viewBox="0 0 212 212" version="1.1" xmlns="http://www.w3.org/2000/svg" xmlns:xlink="http://www.w3.org/1999/xlink">
    <!-- Generator: Sketch 63.1 (92452) - https://sketch.com -->
    <title>duck</title>
    <desc>Created with Sketch.</desc>
    <g id="duck" stroke="none" stroke-width="1" fill="none" fill-rule="evenodd">
        <line x1="87.3581467" y1="144.126099" x2="98.5090408" y2="192.409615" id="Line" stroke="#FFC800" stroke-width="8.8" stroke-linecap="round" stroke-linejoin="round"></line>
        <line x1="111.592522" y1="144.126099" x2="122.743416" y2="192.409615" id="Line" stroke="#FFC800" stroke-width="8.8" stroke-linecap="round" stroke-linejoin="round" transform="translate(117.167969, 168.267857) scale(-1, 1) translate(-117.167969, -168.267857) "></line>
        <path d="M38.9503456,106.60119 L101.631037,106.60119 C103.93772,106.60119 105.807657,108.48943 105.807657,110.818692 C105.807657,128.559063 91.5656467,142.940476 73.9972372,142.940476 L66.5841449,142.940476 C49.0157354,142.940476 34.7737256,128.559063 34.7737256,110.818692 C34.7737256,108.48943 36.643662,106.60119 38.9503456,106.60119 Z" id="Rectangle-176-Copy-5" fill="#89492B" fill-rule="nonzero"></path>
        <path d="M107.247221,106.60119 L169.927912,106.60119 C172.234595,106.60119 174.104532,108.48943 174.104532,110.818692 C174.104532,128.559063 159.862522,142.940476 142.294112,142.940476 L134.88102,142.940476 C117.31261,142.940476 103.070601,128.559063 103.070601,110.818692 C103.070601,108.48943 104.940537,106.60119 107.247221,106.60119 Z" id="Rectangle-176-Copy-5" fill="#89492B" fill-rule="nonzero"></path>
        <line x1="123.226562" y1="196.89881" x2="85.7734375" y2="196.89881" id="Line" stroke="#FFC800" stroke-width="8.8" stroke-linecap="round" stroke-linejoin="round"></line>
        <rect id="Rectangle-297" fill="#78C800" x="83" y="13" width="42.9609375" height="125.535714" rx="21.45"></rect>
        <path d="M110.551563,22.9107143 L110.565625,22.9107143 C113.299435,22.9107143 115.515625,25.1269048 115.515625,27.8607143 L115.515625,36.6809524 C115.515625,39.4147619 113.299435,41.6309524 110.565625,41.6309524 L110.551563,41.6309524 C107.817753,41.6309524 105.601562,39.4147619 105.601562,36.6809524 L105.601562,27.8607143 C105.601562,25.1269048 107.817753,22.9107143 110.551563,22.9107143 Z" id="Rectangle-2" fill="#41930B"></path>
        <path d="M97.3328125,22.9107143 L97.346875,22.9107143 C100.080685,22.9107143 102.296875,25.1269048 102.296875,27.8607143 L102.296875,36.6809524 C102.296875,39.4147619 100.080685,41.6309524 97.346875,41.6309524 L97.3328125,41.6309524 C94.599003,41.6309524 92.3828125,39.4147619 92.3828125,36.6809524 L92.3828125,27.8607143 C92.3828125,25.1269048 94.599003,22.9107143 97.3328125,22.9107143 Z" id="Rectangle-2" fill="#41930B"></path>
        <rect id="Rectangle-298" fill="#FFC800" x="69" y="45" width="71.033931" height="16.5178571" rx="8.25"></rect>
        <rect id="Mask" fill="#A45935" x="47" y="107" width="114.59375" height="72.6785714" rx="36.3"></rect>
        <path d="M80.266246,130.827381 L100.463659,130.827381 C101.189715,130.827381 101.717189,131.517296 101.526587,132.217651 C100.167763,137.210585 95.6157468,140.738095 90.3649526,140.738095 C85.1141583,140.738095 80.5621426,137.210585 79.2033178,132.217651 C79.0127165,131.517296 79.5401898,130.827381 80.266246,130.827381 Z" id="Combined-Shape" fill="#89492B" fill-rule="nonzero"></path>
        <path d="M107.805308,130.827381 L128.002722,130.827381 C128.728778,130.827381 129.256251,131.517296 129.06565,132.217651 C127.706825,137.210585 123.154809,140.738095 117.904015,140.738095 C112.653221,140.738095 108.101205,137.210585 106.74238,132.217651 C106.551779,131.517296 107.079252,130.827381 107.805308,130.827381 Z" id="Combined-Shape-Copy" fill="#89492B" fill-rule="nonzero"></path>
        <path d="M93.484996,145.142857 L113.682409,145.142857 C114.408465,145.142857 114.935939,145.832773 114.745337,146.533128 C113.386513,151.526062 108.834497,155.053571 103.583703,155.053571 C98.3329083,155.053571 93.7808926,151.526062 92.4220678,146.533128 C92.2314665,145.832773 92.7589398,145.142857 93.484996,145.142857 Z" id="Combined-Shape-Copy-2" fill="#89492B" fill-rule="nonzero"></path>
    </g>
</svg>
