<svg width="80" height="90" viewBox="0 0 80 90" fill="none" xmlns="http://www.w3.org/2000/svg"><rect opacity="0.3" y="38" width="80" height="40" rx="4" fill="#AFAFAF"/><path d="M8.43329 39.7366C8.43329 34.2001 12.9215 29.7119 18.458 29.7119H60.9001C66.4366 29.7119 70.9248 34.2001 70.9248 39.7366V66.3203C70.9248 68.5349 69.1296 70.3302 66.915 70.3302H12.4432C10.2286 70.3302 8.43329 68.5349 8.43329 66.3203V39.7366Z" fill="#CE7D03"/><path d="M6.26642 25.2274C6.26642 19.6909 10.7546 15.2027 16.2911 15.2027H63.4073C68.9438 15.2027 73.432 19.6909 73.432 25.2274V55.051H6.26642V25.2274Z" fill="#CE7D03"/><rect x="3.25403" y="42.7716" width="73.8089" height="11.5284" fill="#FEC700"/><path d="M67.1654 25.477H75.0618C76.1691 25.477 77.0668 26.3746 77.0668 27.4819V45.777H67.1654V25.477Z" fill="#FEC700"/><path d="M3.25403 27.4819C3.25403 26.3746 4.15167 25.477 5.25897 25.477H11.6517C12.759 25.477 13.6566 26.3746 13.6566 27.4819V43.7721C13.6566 44.8794 12.759 45.777 11.6517 45.777H5.25897C4.15167 45.777 3.25403 44.8794 3.25403 43.7721V27.4819Z" fill="#FEC700"/><path d="M6.26642 14.0049C6.26642 12.8976 7.16406 12 8.27136 12H18.7973C19.9046 12 20.8023 12.8976 20.8023 14.0049V34.5027H6.26642V14.0049Z" fill="#FEC700"/><path d="M58.8969 14.0049C58.8969 12.8976 59.7946 12 60.9019 12H71.4278C72.5351 12 73.4328 12.8976 73.4328 14.0049V34.5027H58.8969V14.0049Z" fill="#FEC700"/><path d="M6.39819 24.1446L20.7463 20.5723V33.2222L6.39819 33.0464V24.1446Z" fill="#FEF400"/><path d="M6.26642 31.725H20.8023V46.2197H6.26642V31.725Z" fill="#EEAB00"/><path d="M6.26642 52.5436C6.26642 51.4363 7.16406 50.5386 8.27136 50.5386H18.7973C19.9046 50.5386 20.8023 51.4363 20.8023 52.5436V70.3903C20.8023 71.4976 19.9046 72.3953 18.7973 72.3953H8.27136C7.16406 72.3953 6.26642 71.4976 6.26642 70.3903V52.5436Z" fill="#EEAB00"/><path d="M57.5793 52.5436C57.5793 51.4363 58.4769 50.5386 59.5842 50.5386H70.1102C71.2175 50.5386 72.1151 51.4363 72.1151 52.5436V70.3903C72.1151 71.4976 71.2175 72.3953 70.1102 72.3953H59.5842C58.4769 72.3953 57.5793 71.4976 57.5793 70.3903V52.5436Z" fill="#EEAB00"/><rect x="58.8969" y="31.725" width="14.5358" height="14.4947" fill="#EEAB00"/><rect x="37.093" y="49.9128" width="5.51359" height="9.71144" fill="#C4C4C4"/><rect x="6.26642" y="55.3079" width="14.5358" height="4.88705" fill="#BF7402"/><rect x="57.5793" y="55.3079" width="14.5358" height="4.88705" fill="#BF7402"/><rect x="20.7975" y="63.818" width="36.7782" height="2.63149" fill="#B46C00"/><rect x="20.7975" y="23.6395" width="38.0939" height="2.63149" fill="#B46C00"/><rect opacity="0.92" x="20.7975" y="55.3079" width="36.7782" height="4.88705" fill="#8F5702"/><rect opacity="0.92" x="20.7975" y="35.3047" width="38.0939" height="7.46567" fill="#B46C00"/><path d="M3.25403 46.2159H77.063V55.3008C77.063 56.4081 76.1653 57.3058 75.058 57.3058H5.25897C4.15167 57.3058 3.25403 56.4081 3.25403 55.3008V46.2159Z" fill="#EEAB00"/><rect x="29.0696" y="38.383" width="20.9266" height="18.2007" rx="3.00742" fill="#FEC700"/><path d="M33.7456 38.383H32.0771C30.4161 38.383 29.0696 39.7294 29.0696 41.3904V53.5763C29.0696 55.2372 30.4161 56.5837 32.0771 56.5837H33.081C33.6064 56.5837 34.0291 56.1518 34.0178 55.6265L33.7456 42.9729V38.383Z" fill="#FEF400"/><rect x="29.0696" y="42.8631" width="20.9266" height="17.9407" rx="3.00742" fill="#EEAB00"/><ellipse cx="39.1881" cy="49.7057" rx="3.94723" ry="3.54472" fill="#BF7402"/><path d="M38.2915 51.6033C38.6609 50.8645 39.7153 50.8645 40.0847 51.6033L41.881 55.1957C42.2143 55.8622 41.7296 56.6465 40.9844 56.6465H37.3918C36.6465 56.6465 36.1618 55.8622 36.4951 55.1957L38.2915 51.6033Z" fill="#BF7402"/><path d="M58.9299 16.3848L73.4007 12.8931V20.8578L58.9299 24.3496V16.3848Z" fill="#FEF400"/><rect x="20.6292" y="42.358" width="8.44234" height="3.80299" fill="#FEF400"/></svg>