<svg width="78px" height="81px" viewBox="0 0 78 81" version="1.1" xmlns="http://www.w3.org/2000/svg" xmlns:xlink="http://www.w3.org/1999/xlink"><defs><path d="M3.722,7.826 L5.175,2.208 C5.35927146,1.49636257 6.00139198,0.999334948 6.7365,0.999334948 C7.47160802,0.999334948 8.11372854,1.49636257 8.298,2.208 L9.748,7.814 C9.82254308,8.10083289 9.92295461,8.38031165 10.048,8.649 L12.941,14.886 C13.6129432,16.3335074 13.4999099,18.023806 12.6412167,19.3689571 C11.7825235,20.7141081 10.2968651,21.528 8.701,21.528 L4.839,21.528 C3.24211669,21.528 1.75487284,20.7158214 0.892041469,19.3721108 C0.029210095,18.0284001 -0.0906303378,16.3379996 0.574,14.886 L3.434,8.638 C3.55365545,8.37631451 3.65002788,8.1045978 3.722,7.826 Z" id="path-1"/><path d="M3.722,7.826 L5.175,2.208 C5.35927146,1.49636257 6.00139198,0.999334948 6.7365,0.999334948 C7.47160802,0.999334948 8.11372854,1.49636257 8.298,2.208 L9.748,7.814 C9.82254308,8.10083289 9.92295461,8.38031165 10.048,8.649 L12.941,14.886 C13.6129432,16.3335074 13.4999099,18.023806 12.6412167,19.3689571 C11.7825235,20.7141081 10.2968651,21.528 8.701,21.528 L4.839,21.528 C3.24211669,21.528 1.75487284,20.7158214 0.892041469,19.3721108 C0.029210095,18.0284001 -0.0906303378,16.3379996 0.574,14.886 L3.434,8.638 C3.55365545,8.37631451 3.65002788,8.1045978 3.722,7.826 Z" id="path-3"/></defs><g id="Page-1" stroke="none" stroke-width="1" fill="none" fill-rule="evenodd"><g id="culture" transform="translate(-1.000000, -3.000000)"><g id="Group" transform="translate(39.470000, 52.292000) scale(-1, 1) translate(-39.470000, -52.292000) translate(0.470000, 24.292000)" fill-rule="nonzero"><path d="M62.142,18.538 L57.522,18.538 C54.634103,18.538 52.293,20.879103 52.293,23.767 C52.293,26.654897 54.634103,28.996 57.522,28.996 L64.16,28.996 C71.511,28.996 77.47,34.955 77.47,42.306 C77.47,49.656 71.511,55.615 64.16,55.615 L26.145,55.615 C11.704,55.615 0,43.91 0,29.47 C0,15.032 11.705,3.32699582 26.144,3.32699582 L60.932,3.32699582 C64.9263398,3.3228634 68.2520863,6.39137057 68.5688264,10.3731344 C68.8855665,14.3548983 66.0867606,17.9105995 62.142,18.538 Z" id="Path" fill="#CC8C45"/><path d="M66.334,7.605 L68.604,7.605 L68.604,11.408 L66.334,11.408 L66.334,7.605 Z M75.231,38.61 L77.471,38.61 L77.471,42.413 L75.231,42.413 L75.231,38.61 Z" id="Shape" fill="#CC8C45"/><path d="M62.142,15.21 L57.522,15.21 C55.6538582,15.21 53.927624,16.2066417 52.9935531,17.8245 C52.0594822,19.4423582 52.0594822,21.4356418 52.9935531,23.0535 C53.927624,24.6713583 55.6538582,25.668 57.522,25.668 L64.16,25.668 C71.511,25.668 77.47,31.628 77.47,38.978 C77.47,46.328 71.511,52.288 64.16,52.288 L26.145,52.288 C11.704,52.287 0,40.581 0,26.143 C0,11.704 11.705,-1.76757176e-07 26.144,-1.76757176e-07 L60.932,-1.76757176e-07 C64.9239068,-0.000850376807 68.2459602,3.06676389 68.562528,7.04609869 C68.8790957,11.0254335 66.0838321,14.5796982 62.142,15.21 Z" id="Path" fill="#E5A259"/><rect id="Rectangle" fill="#F34848" x="53.261" y="34.7" width="13.073" height="11.884" rx="5.942"/><rect id="Rectangle" fill="#FFD300" x="15.494" y="26.144" width="20.82" height="11.884" rx="5.301"/><rect id="Rectangle" fill="#1C99F6" x="36.798" y="5.229" width="13.073" height="8.556" rx="4.278"/><rect id="Rectangle" fill="#FFD300" x="28.567" y="33.274" width="12.589" height="9.507" rx="4.753"/><rect id="Rectangle" fill="#F34848" x="46.482" y="31.372" width="14.526" height="9.507" rx="4.753"/><rect id="Rectangle" fill="#1C99F6" x="27.115" y="8.081" width="15.978" height="10.457" rx="5.2285"/></g><g id="Group" transform="translate(62.635497, 43.180735) rotate(-19.000000) translate(-62.635497, -43.180735) translate(55.635497, 0.180735)"><path d="M5.59,33.6029999 L7.968,33.6029999 C9.128,33.6029999 10.188,34.258 10.706,35.295 L11.096,36.075 C11.9015211,37.6852778 12.2756994,39.4769235 12.182,41.275 L10.012,82.903 C9.92737282,84.530542 8.58274056,85.806602 6.953,85.8060002 L6.604,85.8060002 C4.97464584,85.8060002 3.63060722,84.530156 3.546,82.903 L1.376,41.274 C1.282,39.476 1.656,37.684 2.461,36.074 L2.851,35.295 C3.3698973,34.2578038 4.43024557,33.6029999 5.59,33.6029999 L5.59,33.6029999 Z" id="Path" fill="#CD7900" fill-rule="nonzero"/><path d="M4.896,22.1319995 L8.662,22.1319995 C8.988,22.1319995 9.257,22.387 9.273,22.712 L9.827,33.563 C9.83578511,33.7307824 9.77520626,33.8947978 9.65946806,34.0165877 C9.54372985,34.1383775 9.38301206,34.2072298 9.215,34.2070006 L4.342,34.2070006 C4.17398794,34.2072298 4.01327015,34.1383775 3.89753194,34.0165877 C3.78179374,33.8947978 3.72121489,33.7307824 3.73,33.563 L4.284,22.713 C4.30052563,22.3871655 4.56974697,22.1315812 4.896,22.1319995 L4.896,22.1319995 Z" id="Path" fill="#D8D8D8" fill-rule="nonzero"/><rect id="Rectangle" fill="#D8D8D8" fill-rule="nonzero" x="2.465" y="32.395" width="8.627" height="2.415" rx="1.2075"/><rect id="Rectangle" fill="#D8D8D8" fill-rule="nonzero" x="3.081" y="20.924" width="7.395" height="2.415" rx="1.2075"/><g><g id="a-link" fill="#835032" fill-rule="nonzero"><path d="M3.722,7.826 L5.175,2.208 C5.35927146,1.49636257 6.00139198,0.999334948 6.7365,0.999334948 C7.47160802,0.999334948 8.11372854,1.49636257 8.298,2.208 L9.748,7.814 C9.82254308,8.10083289 9.92295461,8.38031165 10.048,8.649 L12.941,14.886 C13.6129432,16.3335074 13.4999099,18.023806 12.6412167,19.3689571 C11.7825235,20.7141081 10.2968651,21.528 8.701,21.528 L4.839,21.528 C3.24211669,21.528 1.75487284,20.7158214 0.892041469,19.3721108 C0.029210095,18.0284001 -0.0906303378,16.3379996 0.574,14.886 L3.434,8.638 C3.55365545,8.37631451 3.65002788,8.1045978 3.722,7.826 Z" id="a"/></g><g id="Clipped"><mask id="mask-2" fill="white"><use xlink:href="#path-1"/></mask><g id="a"/><rect id="Rectangle" fill="#FFD300" fill-rule="nonzero" mask="url(#mask-2)" x="1.849" y="4.019" width="4.314" height="11.471" rx="2.157"/></g><g id="Clipped"><mask id="mask-4" fill="white"><use xlink:href="#path-3"/></mask><g id="a"/><rect id="Rectangle" fill="#FFD300" fill-rule="nonzero" mask="url(#mask-4)" x="3.697" y="-0.208" width="6.779" height="11.471" rx="3.369"/></g></g></g></g></g></svg>