<svg width="77px" height="64px" viewBox="0 0 77 64" version="1.1" xmlns="http://www.w3.org/2000/svg" xmlns:xlink="http://www.w3.org/1999/xlink"><g id="Page-1" stroke="none" stroke-width="1" fill="none" fill-rule="evenodd"><g id="school" fill-rule="nonzero"><rect id="Rectangle" fill="#1899D6" x="30.527" y="56.686" width="15.947" height="7.314" rx="1.814"/><path d="M3.629,1.82899986 L73.37,1.82899986 C74.3324707,1.82899986 75.2556264,2.21082035 75.9363834,2.89120234 C76.6171405,3.57158433 77,4.49452935 77,5.457 L77,58.543 C77,60.5468508 75.3748509,62.1710001 73.371,62.1710001 L3.63,62.1710001 C2.66752935,62.1710001 1.74437362,61.7891796 1.06361656,61.1087977 C0.382859496,60.4284157 0,59.5054707 0,58.543 L0,5.457 C0.00110413919,3.45353974 1.62553943,1.8299997 3.629,1.83 L3.629,1.82899986 Z" id="Path" fill="#1899D6"/><rect id="Rectangle" fill="#D2E4E8" x="31.893" y="52.571" width="13.213" height="5.943" rx="1.814"/><path d="M5.01199972,44.343 L72.4440003,44.343 L72.4440003,54.414 C72.4440003,54.8954493 72.2531281,55.3572559 71.912692,55.697692 C71.5722559,56.0381281 71.1104493,56.2292655 70.629,56.2290003 L6.826,56.2290003 C6.34472398,56.2290003 5.88317437,56.0377455 5.54295462,55.6973382 C5.20273487,55.3569309 5.01199972,54.895276 5.01199972,54.414 L5.01199972,44.343 Z" id="Path" fill="#D2E4E8"/><path d="M72.444,49.829 L45.078,49.829 C41.5709918,49.829 38.728,52.6719918 38.728,56.179 C38.728,52.6719918 35.8850082,49.829 32.378,49.829 L5.011,49.829 L5.011,5.929 C5.011,4.927 5.823,4.11399992 6.825,4.11399992 L32.376,4.11399992 C34.0601247,4.11399992 35.6752721,4.78301594 36.8661281,5.97387194 C38.0569841,7.16472794 38.726,8.77987529 38.726,10.464 C38.726,8.77970201 39.3951532,7.1644031 40.5862255,5.97351835 C41.7772978,4.7826336 43.392702,4.11399992 45.077,4.11399992 L70.63,4.11399992 C71.632,4.11399992 72.445,4.927 72.445,5.929 L72.445,49.829 L72.444,49.829 Z" id="Path" fill="#FFFFFF"/><rect id="Rectangle" fill="#D2E4E8" x="8.657" y="8.686" width="25.515" height="4.114" rx="1.361"/><rect id="Rectangle" fill="#D2E4E8" x="8.657" y="27.429" width="25.515" height="4.114" rx="1.361"/><rect id="Rectangle" fill="#D2E4E8" x="8.657" y="18.286" width="20.503" height="4.114" rx="1.361"/><rect id="Rectangle" fill="#D2E4E8" x="8.657" y="36.571" width="20.503" height="4.114" rx="1.361"/><path d="M15.94,0 L26.432,0 C27.184,0 27.7920018,0.61 27.7920018,1.36 L27.7920018,34.27 C27.7927887,34.7608376 27.5290319,35.2140169 27.1018615,35.4557763 C26.6746911,35.6975357 26.1503938,35.6903598 25.73,35.437 L21.686,33.002 C21.2411873,32.7337289 20.6824098,32.7422658 20.246,33.024 L16.678,35.325 C16.2595629,35.5953265 15.7268135,35.6152446 15.2893593,35.3769175 C14.851905,35.1385905 14.5797607,34.6801626 14.5799998,34.182 L14.5799998,1.36 C14.5799998,0.609 15.19,0 15.94,0 Z" id="Path" fill="#FF4B4B"/><rect id="Rectangle" fill="#D2E4E8" x="43.74" y="8.686" width="25.515" height="4.114" rx="1.361"/><rect id="Rectangle" fill="#D2E4E8" x="43.74" y="27.429" width="25.515" height="4.114" rx="1.361"/><rect id="Rectangle" fill="#D2E4E8" x="43.74" y="18.286" width="20.503" height="4.114" rx="1.361"/><rect id="Rectangle" fill="#D2E4E8" x="43.74" y="36.571" width="20.503" height="4.114" rx="1.361"/></g></g></svg>