<svg width="48px" height="43px" viewBox="0 0 48 43" version="1.1" xmlns="http://www.w3.org/2000/svg" xmlns:xlink="http://www.w3.org/1999/xlink"><g id="Page-1" stroke="none" stroke-width="1" fill="none" fill-rule="evenodd"><g id="family-and-friends" fill-rule="nonzero"><path d="M9.00864,24.12232 L38.59136,24.12232 C43.5666945,24.12232 47.6,28.1556255 47.6,33.13096 L47.6,33.49136 C47.6,38.4666945 43.5666945,42.5 38.59136,42.5 L9.00864,42.5 C4.03330551,42.5 0,38.4666945 0,33.49136 L0,33.13096 C0,28.1556255 4.03330551,24.12232 9.00864,24.12232 Z" id="Rectangle" fill="#2D2D2D"/><g id="Group" transform="translate(3.753600, 0.000000)"><path d="M29.766723,42.3715194 L10.2267667,42.3715194 C4.58550327,42.3715194 0.0190664803,38.1096399 0.0190664803,32.7442381 L0.0190664803,32.5444625 C0.0176560407,28.2742114 0.777932531,23.8794538 2.26430105,19.8762362 L5.84123562,10.2584775 C6.95086541,7.44704498 8.89093383,5.04052907 11.4028742,3.35963619 C13.9149097,1.67875188 16.8794844,0.803317406 19.9016136,0.85 C22.8983428,0.805776168 25.8386591,1.66761581 28.3372811,3.32264917 C30.8359982,4.97767586 32.7765803,7.34873636 33.9049319,10.1252938 L37.5865108,19.7430525 C39.1619793,23.8416867 39.9712607,28.3532655 39.9743049,32.7442381 C39.9743049,38.1096399 35.3984924,42.3715194 29.766723,42.3715194 Z" id="Path" fill="#2D2D2D"/><path d="M34.1907062,13.8547033 C32.961896,12.2015126 31.4120178,10.8134527 29.6339198,9.7735351 C26.7149129,8.08426116 23.3981623,7.20417353 20.0256648,7.22401791 C13.8896999,7.22401791 8.33405459,10.0779551 5.42303869,14.4254907 L5.85112926,13.2268371 C6.95905621,10.4161181 8.89740275,8.00992561 11.4077259,6.32898516 C13.9181441,4.64805423 16.8811968,3.77224751 19.9019942,3.81831957 C22.9448619,3.8053627 25.9237064,4.69237588 28.4638056,6.36783676 C30.9373129,7.98692287 32.8431722,10.3384149 33.9148256,13.0936534 L34.1907062,13.8547033 Z" id="Path" fill="#FFD300"/><path d="M8.04810911,21.1003647 L8.04810911,31.0225529 C6.76992579,30.9666157 5.56267232,30.4194209 4.6780184,29.4952209 C3.79335496,28.5709258 3.29955724,27.3408789 3.29955724,26.0614588 C3.29955724,24.7820388 3.79335496,23.5519919 4.6780184,22.6277919 C5.56267232,21.7034968 6.76992579,21.156397 8.04810911,21.1003647 Z" id="Path" fill="#DC8E70"/><path d="M36.8065298,26.0755383 C36.8039613,27.3933913 36.2787417,28.6564487 35.3458848,29.5874982 C34.413123,30.5184525 33.1490191,31.0413889 31.8311661,31.0413889 L31.7265217,31.0413889 L31.7265217,21.1096876 L31.8311661,21.1096876 C33.1490191,21.1096876 34.413123,21.6325289 35.3458848,22.5635783 C36.2787417,23.4945326 36.8039613,24.7575901 36.8065298,26.0755383 Z" id="Path" fill="#DC8E70"/><path d="M32.9823351,17.913278 L32.9823351,29.4472865 C32.9833956,30.433417 32.8717115,31.4165032 32.6492947,32.3773287 C31.9189722,35.508288 30.0626763,38.261386 27.4339148,40.1123546 C24.8051533,41.9633231 21.5875294,42.7828787 18.3935932,42.4151013 C15.199657,42.0473239 12.2525864,40.5178039 10.1132751,38.1177379 C7.97410652,35.7176719 6.79220553,32.6147763 6.79263709,29.3997209 L6.79263709,17.913278 C6.79263709,15.9856337 7.55839252,14.1370435 8.92137583,12.7740031 C10.2844162,11.4109627 12.1331016,10.6449792 14.0606507,10.6449792 L25.7047143,10.6449792 C26.6600222,10.6440147 27.6061024,10.8310427 28.4890154,11.1957759 C29.3719284,11.5604139 30.1742653,12.0956222 30.8501727,12.7706735 C31.5260802,13.4456296 32.0622398,14.2473006 32.4281146,15.129738 C32.7939893,16.0121753 32.9823351,16.9579701 32.9823351,17.913278 Z" id="Path" fill="#DC8E70"/><path d="M25.4475746,32.2496508 C25.3254261,32.5574003 25.1757846,32.8535439 25.0004577,33.1343713 C24.8184717,33.4495411 24.6014773,33.7431161 24.3535653,34.0095787 C23.7946693,34.6496216 23.1051581,35.1626644 22.3314557,35.5141743 C21.5578485,35.8655891 20.7179348,36.0474801 19.8681274,36.0474801 C19.0184152,36.0474801 18.1785015,35.8655891 17.4047991,35.5141743 C16.6311919,35.1626644 15.9416807,34.6496216 15.3826895,34.0095787 C14.9214933,33.4887351 14.551623,32.8937844 14.2886803,32.2496508 C14.2548136,32.1637472 14.2423514,32.070804 14.252245,31.9790024 C14.2621387,31.8872007 14.2941979,31.7991092 14.3456639,31.7223383 C14.3971299,31.6456625 14.4664806,31.5825905 14.5476275,31.5385447 C14.6288696,31.494499 14.7195297,31.4708113 14.8119021,31.4695746 L24.9243528,31.4695746 C25.0167252,31.4708113 25.1074804,31.494499 25.1886273,31.5385447 C25.2698694,31.5825905 25.3391249,31.6456625 25.3905909,31.7223383 C25.4420569,31.7991092 25.4741162,31.8872007 25.484105,31.9790024 C25.4939986,32.070804 25.4814413,32.1637472 25.4475746,32.2496508 Z" id="Path" fill="#FFFFFF"/><path d="M17.6752573,22.3274626 C17.6752573,20.1260306 15.8906904,18.3414637 13.6892584,18.3414637 C11.4878264,18.3414637 9.70325948,20.1260306 9.70325948,22.3274626 L9.70325948,25.3906885 C9.70325948,27.5920253 11.4878264,29.3766874 13.6892584,29.3766874 C15.8906904,29.3766874 17.6752573,27.5920253 17.6752573,25.3906885 L17.6752573,22.3274626 Z" id="Path" fill="#FFFFFF"/><path d="M14.6025183,21.366542 L14.5930051,21.366542 C13.7102824,21.366542 12.9948003,22.0821191 12.9948003,22.9647468 L12.9948003,25.0005553 C12.9948003,25.8831829 13.7102824,26.5987601 14.5930051,26.5987601 L14.6025183,26.5987601 C15.4851459,26.5987601 16.2007231,25.8831829 16.2007231,25.0005553 L16.2007231,22.9647468 C16.2007231,22.0821191 15.4851459,21.366542 14.6025183,21.366542 Z" id="Path" fill="#4B4B4B"/><path d="M22.3182325,25.4002967 C22.3182325,27.6017287 24.1028945,29.3862956 26.3042314,29.3862956 C28.5056634,29.3862956 30.2902303,27.6017287 30.2902303,25.4002967 L30.2902303,22.3370708 C30.2902303,20.1356389 28.5056634,18.351072 26.3042314,18.351072 C24.1028945,18.351072 22.3182325,20.1356389 22.3182325,22.3370708 L22.3182325,25.4002967 Z" id="Path" fill="#FFFFFF"/><path d="M25.3807924,26.6082732 L25.3903056,26.6082732 C26.2730283,26.6082732 26.9885104,25.8927911 26.9885104,25.0100684 L26.9885104,22.9742599 C26.9885104,22.0916322 26.2730283,21.3760551 25.3903056,21.3760551 L25.3807924,21.3760551 C24.4981648,21.3760551 23.7825876,22.0916322 23.7825876,22.9742599 L23.7825876,25.0100684 C23.7825876,25.8927911 24.4981648,26.6082732 25.3807924,26.6082732 Z" id="Path" fill="#4B4B4B"/><path d="M19.9967449,18.86728 C20.8642559,18.86728 21.5675125,19.5705366 21.5675125,20.4380476 L21.5675125,27.8065924 C21.5675125,28.6741034 20.8642559,29.37736 19.9967449,29.37736 C19.1292339,29.37736 18.4259773,28.6741034 18.4259773,27.8065924 L18.4259773,20.4380476 C18.4259773,19.5705366 19.1292339,18.86728 19.9967449,18.86728 Z" id="Rectangle" fill="#C96A46"/><path d="M33.6294319,21.4333241 C32.8777999,21.2364975 32.1775389,20.8795651 31.5765949,20.3869756 C30.9756508,19.894386 30.4881984,19.2777453 30.1476285,18.5793869 C29.9863811,17.9056675 29.6849102,17.2736155 29.262908,16.7243278 C28.6799438,16.289578 27.9890056,16.0231154 27.265152,15.9537647 C25.6422131,15.6529598 24.1037507,15.0038793 22.7559313,14.05114 C21.4526333,13.0998276 20.1493354,11.901174 19.9019942,10.3600289 L29.8907742,10.3600289 L33.3725775,14.3555599 L33.6294319,21.4333241 Z" id="Path" fill="#2D2D2D"/><path d="M6.355087,21.4331338 C7.11755436,21.2363073 7.82968779,20.8802311 8.44457806,20.3883074 C9.05950638,19.8964789 9.56313116,19.2798382 9.92253698,18.5791967 C10.0830234,17.9034795 10.3881093,17.2705713 10.8167706,16.7241375 C11.3986884,16.2876754 12.0901974,16.0209274 12.8145266,15.9535745 C14.434136,15.6514377 15.9691736,15.0023572 17.3142342,14.0509497 C18.6175322,13.0996373 19.7400808,12.1483249 19.9969351,10.616712 L10.1889044,10.388359 L6.67853321,14.1651072 L6.355087,21.4331338 Z" id="Path" fill="#2D2D2D"/></g></g></g></svg>