<svg width="91px" height="59px" viewBox="0 0 91 59" version="1.1" xmlns="http://www.w3.org/2000/svg" xmlns:xlink="http://www.w3.org/1999/xlink"><defs><ellipse id="path-1" cx="29.892" cy="29.5" rx="29.892" ry="29.5"/><ellipse id="path-3" cx="29.892" cy="29.5" rx="29.892" ry="29.5"/><ellipse id="path-5" cx="29.892" cy="29.5" rx="29.892" ry="29.5"/></defs><g id="Page-1" stroke="none" stroke-width="1" fill="none" fill-rule="evenodd"><g id="other"><g id="Group" transform="translate(15.343000, 0.000000)"><g id="a-link" fill="#C264FF" fill-rule="nonzero"><ellipse id="a" cx="29.892" cy="29.5" rx="29.892" ry="29.5"/></g><g id="Clipped"><mask id="mask-2" fill="white"><use xlink:href="#path-1"/></mask><g id="a"/><path d="M22.637,20.363 C22.6294036,20.4110664 22.6214033,20.4590681 22.613,20.507 C24.7674257,21.0776147 26.1649895,23.1569709 25.8797061,25.3673475 C25.5944228,27.5777241 23.7147053,29.2340963 21.486,29.239 L-1.382,29.239 C-3.005941,29.239 -4.50024872,28.3521796 -5.27805155,26.9266246 C-6.05585438,25.5010696 -5.99293337,23.7645257 -5.114,22.399 C-5.58111876,21.3123698 -5.82136234,20.1417778 -5.82021603,18.959 L-5.82021603,12.369 C-5.82255388,9.84546238 -4.72850012,7.44533177 -2.822,5.792 C-1.89601826,4.45276038 -0.371190326,3.65389858 1.257,3.65499886 L33.662,3.65499886 C36.4013324,3.65499886 38.622,5.87566764 38.622,8.615 C38.622,11.3543324 36.4013324,13.575 33.662,13.575 L18.737,13.575 C17.5244406,13.575 16.4039894,14.2218927 15.7977097,15.272 C15.19143,16.3221072 15.19143,17.6158928 15.7977097,18.666 C16.4039894,19.7161073 17.5244406,20.363 18.737,20.363 L22.637,20.363 L22.637,20.363 Z" id="Path" fill="#CE82FF" fill-rule="nonzero" mask="url(#mask-2)"/></g><g id="Clipped"><mask id="mask-4" fill="white"><use xlink:href="#path-3"/></mask><g id="a"/><rect id="Rectangle" fill="#CE82FF" fill-rule="nonzero" mask="url(#mask-4)" x="25.924" y="32.372" width="42.326" height="11.487" rx="5.743"/></g><g id="Clipped"><mask id="mask-6" fill="white"><use xlink:href="#path-5"/></mask><g id="a"/><rect id="Rectangle" fill="#CE82FF" fill-rule="nonzero" mask="url(#mask-6)" x="34.39" y="42.814" width="37.035" height="9.92" rx="4.96"/></g></g><path d="M74.988,26.628 C74.7441325,24.128538 74.1767215,21.6713256 73.3,19.318 L77.244,19.318 C84.841,19.319 91,25.397 91,32.895 C91,40.392 84.841,46.47 77.244,46.47 L13.756,46.47 C6.159,46.469 0,40.391 0,32.894 C0,25.396 6.159,19.319 13.756,19.319 L17.171,19.319 C16.2942785,21.6723256 15.7268675,24.129538 15.483,26.629 L13.756,26.629 C10.249,26.629 7.407,29.433 7.407,32.894 C7.407,36.354 10.249,39.159 13.756,39.159 L77.244,39.159 C80.751,39.159 83.593,36.354 83.593,32.894 C83.593,29.434 80.751,26.628 77.244,26.628 L74.988,26.628 L74.988,26.628 Z" id="Path" fill="#FFD300" fill-rule="nonzero"/></g></g></svg>