<svg width="99px" height="61px" viewBox="0 0 99 61" version="1.1" xmlns="http://www.w3.org/2000/svg" xmlns:xlink="http://www.w3.org/1999/xlink"><g id="Page-1" stroke="none" stroke-width="1" fill="none" fill-rule="evenodd"><g id="travel" fill-rule="nonzero"><path d="M49.564,0.26 C50.384,0.26 51.074,0.875 51.168,1.69 L54.484,30.559 C54.6382202,31.9031 54.2114741,33.2491287 53.3109974,34.2588467 C52.4105206,35.2685647 51.1219186,35.846 49.769,35.846 L49.359,35.846 C48.0060814,35.846 46.7174794,35.2685647 45.8170026,34.2588467 C44.9165259,33.2491287 44.4897798,31.9031 44.644,30.559 L47.96,1.69 C48.0539576,0.875174911 48.7437757,0.26 49.564,0.26 L49.564,0.26 Z" id="Path" fill="#2F90EA"/><path d="M2.153,25.977 L49.427,31.046 L96.7,25.977 C97.216763,25.9216809 97.7327029,26.0884515 98.1193172,26.4357749 C98.5059315,26.7830983 98.727,27.2782846 98.727,27.798 C98.727,29.02 97.957,30.11 96.805,30.518 L49.427,47.296 L2.048,30.518 C0.895835932,30.110013 0.125999962,29.0202665 0.125999962,27.798 C0.125999962,27.2782846 0.347068545,26.7830983 0.733682812,26.4357749 C1.12029708,26.0884515 1.63623705,25.9216809 2.153,25.977 Z" id="Path" fill="#CACACA"/><rect id="Rectangle" fill="#186CBA" x="29.885" y="48.696" width="5.76" height="11.862" rx="2.88"/><rect id="Rectangle" fill="#186CBA" x="36.605" y="48.696" width="5.76" height="11.862" rx="2.88"/><rect id="Rectangle" fill="#186CBA" x="57.724" y="48.696" width="5.76" height="11.862" rx="2.88"/><rect id="Rectangle" fill="#186CBA" x="64.443" y="48.696" width="5.76" height="11.862" rx="2.88"/><g id="Group" transform="translate(30.845000, 17.064000)" fill="#E5E5E5"><g id="a-link"><ellipse id="a" cx="18.57" cy="19.322" rx="18.014" ry="19.075"/></g></g><ellipse id="Oval" stroke="#186CBA" stroke-width="3.836" fill="#2F90EA" cx="15.222" cy="43.456" rx="9.336" ry="9.587"/><ellipse id="Oval" stroke="#186CBA" stroke-width="3.836" fill="#2F90EA" cx="84.092" cy="43.456" rx="9.336" ry="9.587"/><ellipse id="Oval" fill="#186CBA" cx="15.222" cy="43.456" rx="3.365" ry="3.456"/><ellipse id="Oval" fill="#186CBA" cx="84.092" cy="43.456" rx="3.365" ry="3.456"/><ellipse id="Oval" fill="#CACACA" cx="49.564" cy="39.305" rx="5.28" ry="5.437"/><path d="M44.448,24.972 L54.172,24.972 C55.025,24.972 55.814,25.426 56.243,26.162 L56.99,27.443 C57.2864163,27.9514415 57.2884292,28.5795488 56.995278,29.0898797 C56.7021267,29.6002107 56.1585366,29.9149052 55.57,29.915 L43.05,29.915 C42.4614634,29.9149052 41.9178733,29.6002107 41.624722,29.0898797 C41.3315708,28.5795488 41.3335837,27.9514415 41.63,27.443 L42.377,26.163 C42.8064644,25.4261386 43.5951199,24.9729759 44.448,24.973 L44.448,24.972 Z" id="Path" fill="#1CB0F6"/></g></g></svg>